<?xml version="1.0" standalone="no"?>
<!DOCTYPE svg PUBLIC "-//W3C//DTD SVG 1.1//EN" "http://www.w3.org/Graphics/SVG/1.1/DTD/svg11.dtd" >
<svg xmlns="http://www.w3.org/2000/svg">
<metadata></metadata>
<defs>
<font id="skolasanscnregular" horiz-adv-x="1024" >
<font-face units-per-em="2048" ascent="1536" descent="-512" />
<missing-glyph horiz-adv-x="454" />
<glyph unicode="&#xfb01;" horiz-adv-x="1056" d="M45 924v139h127v174q0 187 90 289t242 102q90 0 196 -30.5t179 -71.5l-41 -125q-67 32 -156.5 57t-169.5 25q-86 0 -130 -67t-44 -183v-170h577v-1063h-165v924h-412v-924h-166v924h-127z" />
<glyph unicode="&#xfb02;" horiz-adv-x="1118" d="M45 924v139h127v174q0 187 90 289t242 102q94 0 212 -36t202 -89v-1171q0 -109 29 -151t102 -42l-25 -143q-30 -10 -57 -10q-104 0 -160.5 88t-56.5 256v1093q-131 60 -238 60q-86 0 -130 -67t-44 -183v-170h233v-139h-233v-924h-166v924h-127z" />
<glyph horiz-adv-x="0" />
<glyph horiz-adv-x="0" />
<glyph horiz-adv-x="682" />
<glyph unicode="&#xd;" horiz-adv-x="327" />
<glyph unicode=" "  horiz-adv-x="454" />
<glyph unicode="&#x09;" horiz-adv-x="454" />
<glyph unicode="&#xa0;" horiz-adv-x="454" />
<glyph unicode="!" horiz-adv-x="600" d="M184 121q0 56 34.5 95.5t80.5 39.5q49 0 83 -39t34 -96q0 -56 -34 -94.5t-83 -38.5q-46 0 -80.5 39t-34.5 94zM213 1532h174l-27 -1083h-118z" />
<glyph unicode="&#x22;" horiz-adv-x="675" d="M131 1016v516h141v-516h-141zM406 1016v516h139v-516h-139z" />
<glyph unicode="#" horiz-adv-x="952" d="M66 471v123h172l36 338h-157v123h172l51 477h115l-54 -477h211l54 477h112l-51 -477h160v-123h-174l-37 -338h158v-123h-172l-52 -471h-112l49 471h-211l-49 -471h-115l51 471h-157zM350 594h211l39 338h-211z" />
<glyph unicode="$" d="M109 164l75 145q148 -151 318 -151q109 0 169 65.5t60 184.5q0 60 -20.5 107t-55 78.5t-79.5 57t-94.5 48.5t-99 47.5t-94.5 59.5t-79.5 79t-55 111.5t-20.5 152.5q0 147 83 250.5t233 124.5v217h133v-215q150 -18 309 -158l-78 -147q-150 153 -301 153 q-100 0 -155.5 -62.5t-55.5 -156.5q0 -62 21 -110.5t56.5 -80.5t81.5 -57.5t96.5 -48t101 -46.5t96.5 -58t81.5 -77t56.5 -109.5t21 -149.5q0 -172 -88.5 -279t-242.5 -131v-217h-133v213q-183 15 -340 160z" />
<glyph unicode="%" horiz-adv-x="1497" d="M74 1186q0 148 86 253t209 105q120 0 205 -105t85 -253q0 -149 -85 -254t-205 -105q-123 0 -209 105t-86 254zM190 1186q0 -96 52.5 -169t126.5 -73q71 0 123.5 73.5t52.5 168.5t-52.5 168t-123.5 73q-74 0 -126.5 -73t-52.5 -168zM285 0l798 1544l123 -12l-803 -1544z M838 344q0 149 85.5 255t206.5 106q120 0 206.5 -106t86.5 -255q0 -147 -86.5 -251.5t-206.5 -104.5q-121 0 -206.5 104t-85.5 252zM954 344q0 -95 52 -167.5t124 -72.5q73 0 125 72.5t52 167.5q0 97 -52 170.5t-125 73.5q-72 0 -124 -73.5t-52 -170.5z" />
<glyph unicode="&#x26;" horiz-adv-x="1216" d="M90 397q0 84 22 155.5t64.5 129t85.5 98.5t103 86q-150 182 -150 342q0 147 88 241.5t219 94.5q138 0 221.5 -94t83.5 -238q0 -192 -252 -376l256 -369l238 391l117 -90l-256 -418l260 -350l-178 -12l-176 248q-173 -256 -363 -256q-162 0 -272.5 114t-110.5 303z M246 399q0 -122 68 -200t165 -78q134 0 264 225l-292 412q-86 -77 -116 -113q-89 -107 -89 -246zM362 1204q0 -37 11.5 -74.5t36.5 -78t38.5 -59.5t43.5 -58q32 22 62 48.5t62 62t51 78t19 83.5q0 83 -44 143t-122 60q-69 0 -113.5 -60t-44.5 -145z" />
<glyph unicode="'" horiz-adv-x="403" d="M131 1016v516h141v-516h-141z" />
<glyph unicode="(" horiz-adv-x="438" d="M86 668q0 540 209 983l102 -62q-178 -395 -178 -921q0 -510 178 -901l-102 -64q-41 87 -72.5 169t-65.5 203t-52.5 272t-18.5 321z" />
<glyph unicode=")" horiz-adv-x="438" d="M41 -233q180 395 180 901q0 521 -180 921l102 62q209 -443 209 -983q0 -170 -18.5 -321t-52.5 -272t-65.5 -203t-72.5 -169z" />
<glyph unicode="*" horiz-adv-x="757" d="M66 1210l34 127l240 -123l-21 330h117l-18 -330l239 123l35 -125l-250 -82l168 -251l-96 -78l-135 278l-135 -278l-94 78l165 254z" />
<glyph unicode="+" horiz-adv-x="1071" d="M104 618v148h365v461h133v-461h365v-148h-365v-460h-133v460h-365z" />
<glyph unicode="," horiz-adv-x="462" d="M100 125q0 57 35 98t82 41q50 0 84.5 -40.5t34.5 -98.5q0 -82 -47 -224t-92 -220l-88 36l98 273q-45 0 -76 41.5t-31 93.5z" />
<glyph unicode="-" horiz-adv-x="571" d="M66 524v148h440v-148h-440z" />
<glyph unicode="." horiz-adv-x="489" d="M127 125q0 58 34.5 98.5t84.5 40.5q49 0 82.5 -40.5t33.5 -98.5q0 -57 -33.5 -97t-82.5 -40q-51 0 -85 40t-34 97z" />
<glyph unicode="/" horiz-adv-x="706" d="M0 -418l569 2069h138l-568 -2069h-139z" />
<glyph unicode="0" horiz-adv-x="1026" d="M61 766q0 370 120 574t329 204q213 0 334 -204t121 -574t-121 -574t-334 -204q-209 0 -329 204t-120 574zM238 766q0 -294 73.5 -462.5t198.5 -168.5q128 0 203 168t75 463t-75 463t-203 168q-125 0 -198.5 -168.5t-73.5 -462.5z" />
<glyph unicode="1" d="M139 0v160h342v1175l-288 -182l-54 129l383 250h135v-1372h248v-160h-766z" />
<glyph unicode="2" d="M111 0v121q54 47 124.5 118.5t161 179t164.5 214.5t125 225.5t51 210.5q0 144 -70.5 233t-189.5 89q-122 0 -278 -125l-68 131q94 79 190 113t171 34q193 0 306 -129.5t113 -339.5q0 -96 -39.5 -206t-97.5 -205t-137 -194.5t-144 -168.5t-133 -133l2 -8h537v-160h-788z " />
<glyph unicode="3" d="M104 150l72 141q84 -75 157.5 -112.5t149.5 -37.5q121 0 190.5 94t69.5 234q0 25 -5.5 56t-22 72.5t-42 74.5t-72 56.5t-105.5 23.5h-144v143h144q50 0 89 21.5t61 52t36 68t18.5 65t4.5 47.5q0 107 -68 174.5t-168 67.5q-65 0 -130 -29.5t-144 -95.5l-68 131 q171 147 362 147q166 0 279 -102t113 -271q0 -231 -199 -337v-9q64 -20 112.5 -62t74.5 -94.5t38.5 -105.5t12.5 -106q0 -202 -116 -335.5t-315 -133.5q-189 0 -385 162z" />
<glyph unicode="4" d="M59 383l662 1161h119v-1067h129v-158h-129v-319h-170v319h-607zM287 483l2 -6h381v703l-6 2z" />
<glyph unicode="5" horiz-adv-x="1026" d="M90 150l74 143q90 -79 158 -115.5t147 -36.5q123 0 206 99.5t83 240.5q0 163 -81.5 252.5t-215.5 89.5h-264l47 709h604v-160h-459l-24 -395h159q181 0 295.5 -127.5t114.5 -362.5q0 -103 -37 -196t-98.5 -159t-145.5 -105t-176 -39q-104 0 -192 37t-195 125z" />
<glyph unicode="6" d="M102 483q0 119 29.5 239t93 253.5t143 263.5t199.5 305l203 -12q-244 -338 -403 -662l4 -6q34 41 88 69t100 28q115 0 203 -67.5t133 -178t45 -244.5q0 -202 -119.5 -342.5t-298.5 -140.5q-122 0 -219 67t-149 179.5t-52 248.5zM276 471q0 -144 72.5 -241t173.5 -97 q76 0 134 50.5t86 126.5t28 161q0 139 -70.5 240.5t-177.5 101.5q-108 0 -177 -99.5t-69 -242.5z" />
<glyph unicode="7" d="M90 1372v160h842v-53l-502 -1491l-186 12l469 1372h-623z" />
<glyph unicode="8" horiz-adv-x="1026" d="M80 442q0 55 12 109.5t37 108.5t71 97.5t107 65.5l2 8q-52 28 -89 69t-56 87.5t-27 89.5t-8 88q0 172 110.5 275.5t272.5 103.5q163 0 273 -103.5t110 -275.5q0 -45 -8 -88t-26.5 -89.5t-56 -87.5t-89.5 -69l2 -8q61 -22 107 -65.5t71 -97.5t37 -108.5t12 -109.5 q0 -128 -48 -229.5t-148 -163t-238 -61.5q-137 0 -236 61.5t-146.5 163t-47.5 229.5zM254 463q0 -154 73.5 -240t184.5 -86t183.5 85.5t72.5 240.5q0 121 -69 209t-160 88h-56q-91 0 -160 -88t-69 -209zM305 1141q0 -113 50.5 -183.5t129.5 -70.5h54q80 0 130 70t50 184 q0 119 -64.5 186.5t-142.5 67.5t-142.5 -67.5t-64.5 -186.5z" />
<glyph unicode="9" d="M92 1061q0 202 119.5 342.5t298.5 140.5q123 0 220.5 -67t149.5 -179.5t52 -248.5q0 -119 -29.5 -239t-93.5 -253.5t-143.5 -264t-200.5 -304.5l-201 12q247 342 404 662l-4 6q-35 -41 -88 -69t-99 -28q-116 0 -204.5 67.5t-134.5 178t-46 244.5zM266 1061 q0 -140 68.5 -242t175.5 -102q111 0 179.5 100t68.5 244t-72.5 240t-175.5 96q-74 0 -131 -50.5t-85 -126t-28 -159.5z" />
<glyph unicode=":" horiz-adv-x="489" d="M127 125q0 58 34.5 98.5t84.5 40.5q49 0 82.5 -40.5t33.5 -98.5q0 -57 -33.5 -97t-82.5 -40q-51 0 -85 40t-34 97zM127 936q0 58 34.5 98.5t84.5 40.5q49 0 82.5 -40.5t33.5 -98.5q0 -57 -33.5 -97t-82.5 -40q-51 0 -85 40t-34 97z" />
<glyph unicode=";" horiz-adv-x="462" d="M100 125q0 57 35 98t84 41t83 -41t34 -98q0 -82 -46.5 -223.5t-90.5 -220.5l-88 36l98 273q-46 0 -77.5 41.5t-31.5 93.5zM100 936q0 57 35 98t84 41t83 -41t34 -98t-34 -97t-83 -40q-50 0 -84.5 40t-34.5 97z" />
<glyph unicode="&#x3c;" horiz-adv-x="1071" d="M123 614v148l825 457v-156l-639 -371v-8l639 -371v-155z" />
<glyph unicode="=" horiz-adv-x="1071" d="M104 451v145h863v-145h-863zM104 786v148h863v-148h-863z" />
<glyph unicode="&#x3e;" horiz-adv-x="1071" d="M123 158v155l639 371v8l-639 371v156l825 -457v-148z" />
<glyph unicode="?" horiz-adv-x="817" d="M86 1395q78 80 151.5 114.5t157.5 34.5q68 0 130 -22.5t113 -67t81.5 -119.5t30.5 -172q0 -288 -297 -483l-17 -231h-110l-23 296q74 48 133 103t103.5 134t44.5 159q0 125 -60.5 192.5t-146.5 67.5q-55 0 -105 -30.5t-114 -100.5zM266 121q0 57 33.5 96t81.5 39 t81.5 -39t33.5 -96q0 -55 -34 -94t-81 -39t-81 39t-34 94z" />
<glyph unicode="@" horiz-adv-x="1757" d="M152 537q0 181 37 330t103 253t158 175.5t199.5 105t229.5 33.5q124 0 230 -29.5t199 -97t158 -169.5t102.5 -255t37.5 -346q0 -122 -26.5 -221t-70.5 -160.5t-99.5 -94t-115.5 -32.5q-70 0 -133.5 57t-79.5 160h-8q-39 -98 -104 -157.5t-150 -59.5q-148 0 -242 138.5 t-94 373.5q0 233 97 362t256 129q126 0 229 -112h113v-566q0 -98 39 -145t81 -47q75 0 128 100t53 275q0 163 -31 292.5t-85 216.5t-130.5 144.5t-164 82.5t-189.5 25q-101 0 -190.5 -29t-165.5 -89.5t-130.5 -149.5t-85.5 -215t-31 -278q0 -192 43 -339.5t123 -241 t190 -140.5t247 -47q163 0 305 57l33 -127q-161 -66 -338 -66q-166 0 -298.5 54.5t-229 164t-148 283t-51.5 402.5zM631 541q0 -172 53.5 -272.5t134.5 -100.5q75 0 143 93t68 228v273q-39 59 -90.5 94t-103.5 35q-37 0 -71.5 -19t-65.5 -58.5t-49.5 -110t-18.5 -162.5z" />
<glyph unicode="A" horiz-adv-x="1187" d="M12 0l535 1532h92l537 -1532l-179 -12l-116 354h-574l-114 -354zM360 494h467l-231 733h-6z" />
<glyph unicode="B" horiz-adv-x="1187" d="M145 0v1532h502q181 0 281 -111t100 -284q0 -100 -46.5 -191.5t-141.5 -142.5v-8q104 -32 173.5 -132.5t69.5 -230.5q0 -197 -114 -314.5t-322 -117.5h-502zM322 160h313q75 0 130.5 24t85.5 66t44 90.5t14 105.5q0 107 -75.5 190t-169.5 83h-342v-559zM322 870h342 q72 0 131 73.5t59 168.5q0 116 -59.5 188t-157.5 72h-315v-502z" />
<glyph unicode="C" horiz-adv-x="1200" d="M98 766q0 163 38 303.5t110.5 246.5t186.5 167t257 61q115 0 214.5 -38.5t203.5 -114.5l-74 -152q-87 71 -168.5 108t-175.5 37q-132 0 -228 -85t-142 -223t-46 -310q0 -127 27 -238.5t78.5 -196.5t131.5 -134.5t179 -49.5q93 0 174.5 37.5t169.5 108.5l74 -152 q-104 -76 -203.5 -114.5t-214.5 -38.5q-143 0 -257 61t-186.5 167t-110.5 246.5t-38 303.5z" />
<glyph unicode="D" horiz-adv-x="1232" d="M131 0v1532h418q140 0 252 -59.5t184 -163.5t110 -242.5t38 -300.5t-38 -300.5t-110 -242.5t-184 -163.5t-252 -59.5h-418zM307 160h228q134 0 230 79.5t143.5 215t47.5 311.5t-47 311.5t-143.5 215t-230.5 79.5h-228v-1212z" />
<glyph unicode="E" horiz-adv-x="1081" d="M145 0v1532h834v-160h-657v-502h587v-151h-587v-559h657v-160h-834z" />
<glyph unicode="F" horiz-adv-x="1028" d="M145 0v1532h813v-160h-636v-520h567v-152h-567v-700h-177z" />
<glyph unicode="G" horiz-adv-x="1259" d="M98 766q0 163 38 303.5t110.5 246.5t186.5 167t257 61q120 0 222.5 -38.5t209.5 -114.5l-75 -152q-90 71 -174.5 108t-182.5 37q-132 0 -228 -85t-142 -223t-46 -310q0 -127 27 -238t78.5 -195.5t132 -133.5t180.5 -49q152 0 301 126v367h-288v158h450v-625 q-107 -89 -226.5 -138.5t-236.5 -49.5q-144 0 -258 61t-187 167.5t-111 246.5t-38 303z" />
<glyph unicode="H" horiz-adv-x="1290" d="M145 0v1532h177v-662h647v662h174v-1532h-174v719h-647v-719h-177z" />
<glyph unicode="I" horiz-adv-x="466" d="M145 0v1532h177v-1532h-177z" />
<glyph unicode="J" horiz-adv-x="817" d="M39 78l76 143q86 -71 182 -71q98 0 154.5 86t56.5 264v1032h176v-1022q0 -270 -102.5 -396t-284.5 -126q-130 0 -258 90z" />
<glyph unicode="K" horiz-adv-x="1087" d="M145 0v1532h177v-696h147l348 708l193 -12l-404 -772l473 -760l-200 -12l-414 696h-143v-684h-177z" />
<glyph unicode="L" horiz-adv-x="966" d="M145 0v1532h177v-1372h602v-160h-779z" />
<glyph unicode="M" horiz-adv-x="1458" d="M145 0v1532h101l481 -846l481 846h103v-1532h-174v1104l-9 2l-370 -660h-60l-370 660l-6 -4v-1102h-177z" />
<glyph unicode="N" horiz-adv-x="1290" d="M145 0v1532h80l738 -1135l6 2v1133h174v-1532h-84l-731 1122l-6 -2v-1120h-177z" />
<glyph unicode="O" horiz-adv-x="1386" d="M98 766q0 221 67.5 395t204 278.5t322.5 104.5q187 0 323.5 -104.5t203.5 -278.5t67 -395t-67 -395t-203.5 -278.5t-323.5 -104.5q-186 0 -322.5 104.5t-204 278.5t-67.5 395zM274 766q0 -170 47 -309t144 -225.5t227 -86.5q99 0 179.5 50t132 135.5t79 197.5t27.5 238 t-27.5 237.5t-79 196.5t-132 134.5t-179.5 49.5q-98 0 -178.5 -49.5t-132 -134.5t-79.5 -196.5t-28 -237.5z" />
<glyph unicode="P" horiz-adv-x="1132" d="M145 0v1532h463q179 0 304.5 -147.5t125.5 -360.5q0 -138 -58 -254t-157 -183t-215 -67h-286v-520h-177zM322 678h272q112 0 191 101.5t79 244.5q0 147 -78.5 247.5t-191.5 100.5h-272v-694z" />
<glyph unicode="Q" horiz-adv-x="1386" d="M98 766q0 221 67.5 395t204 278.5t322.5 104.5q187 0 323.5 -104.5t203.5 -278.5t67 -395q0 -317 -137 -516.5t-369 -241.5l-2 -6q59 -39 233 -137.5t238 -138.5l-75 -150q-83 52 -246 149t-275.5 169t-232.5 159q-322 233 -322 713zM274 766q0 -164 42.5 -285.5 t115.5 -201.5t189 -150q106 0 189.5 33.5t139 91t92 139t52.5 174t16 199.5q0 94 -16 183t-50.5 168t-83 138.5t-117.5 94t-151 34.5q-98 0 -178.5 -49.5t-132 -134.5t-79.5 -196.5t-28 -237.5z" />
<glyph unicode="R" horiz-adv-x="1150" d="M131 0v1532h518q165 0 275 -124t110 -341q0 -158 -78 -268.5t-202 -159.5l356 -639l-197 -12l-340 633h-266v-621h-176zM307 772h324q63 0 116.5 46.5t82 114t28.5 134.5q0 144 -65 224.5t-166 80.5h-320v-600z" />
<glyph unicode="S" horiz-adv-x="1062" d="M102 150l76 145q82 -74 173.5 -116t178.5 -42q115 0 181.5 71t66.5 193q0 75 -36 130t-93.5 89t-127 64t-138.5 66.5t-126.5 83.5t-93.5 127.5t-36 187.5q0 112 43.5 199.5t138.5 141.5t230 54q111 0 205 -40t192 -122l-76 -147q-176 156 -328 156q-108 0 -168.5 -68.5 t-60.5 -167.5q0 -76 36 -133t93 -92t126.5 -66t138.5 -66.5t126 -81.5t93 -123.5t36 -180.5q0 -204 -113 -315t-317 -111q-226 0 -420 164z" />
<glyph unicode="T" horiz-adv-x="1044" d="M37 1372v160h973v-160h-402v-1372h-174v1372h-397z" />
<glyph unicode="U" horiz-adv-x="1269" d="M131 659v873h176v-873q0 -150 36.5 -266.5t112 -186t179.5 -69.5t179.5 69.5t112 186t36.5 266.5v873h176v-873q0 -197 -56 -347t-171 -238t-277 -88t-277 88t-171 238t-56 347z" />
<glyph unicode="V" horiz-adv-x="1089" d="M6 1530l180 14l355 -1220h8l354 1220l180 -14l-487 -1530h-102z" />
<glyph unicode="W" horiz-adv-x="1593" d="M6 1530l180 14l277 -1182h8l299 1170h55l297 -1170h8l281 1182l176 -14l-407 -1530h-105l-272 1090h-10l-273 -1090h-104z" />
<glyph unicode="X" horiz-adv-x="1138" d="M29 0l442 811l-389 721l199 12l290 -598l289 598l197 -12l-389 -721l442 -811l-199 -12l-340 686l-344 -686z" />
<glyph unicode="Y" horiz-adv-x="1083" d="M12 1532l203 12l324 -794h6l321 794l205 -12l-442 -940v-592h-176v588z" />
<glyph unicode="Z" horiz-adv-x="1105" d="M86 0v45l659 1327h-630v160h893v-49l-658 -1323h664v-160h-928z" />
<glyph unicode="[" horiz-adv-x="507" d="M102 -297v1948h342v-142h-211v-1665h216v-141h-347z" />
<glyph unicode="\" horiz-adv-x="706" d="M0 1651h137l570 -2069h-140z" />
<glyph unicode="]" horiz-adv-x="509" d="M61 -156h215v1665h-210v142h342v-1948h-347v141z" />
<glyph unicode="^" horiz-adv-x="1165" d="M139 606l371 926h145l369 -926h-145l-295 772l-297 -772h-148z" />
<glyph unicode="_" horiz-adv-x="819" d="M0 -166h819v-92h-819v92z" />
<glyph unicode="`" horiz-adv-x="415" d="M63 1505h197l158 -307h-142z" />
<glyph unicode="a" horiz-adv-x="987" d="M86 326q0 38 5.5 73.5t27.5 83t58.5 81t105.5 57.5t161 24q50 0 117 -14t121 -41q0 174 -60 259t-165 85q-69 0 -126 -23t-132 -71l-58 129q177 106 330 106q173 0 276 -120.5t103 -336.5v-618h-139l-21 166l-6 2q-28 -50 -65.5 -87t-76.5 -56.5t-75 -28t-70 -8.5 q-141 0 -226 93.5t-85 244.5zM258 334q0 -92 49.5 -150.5t130.5 -58.5q28 0 58 9t64 33.5t60.5 62t44 101.5t17.5 144q-104 55 -217 55q-51 0 -90 -14t-60.5 -34.5t-35 -48.5t-17.5 -51.5t-4 -47.5z" />
<glyph unicode="b" horiz-adv-x="1060" d="M135 88v1540h168v-690l6 -2q119 139 252 139q181 0 290.5 -146t109.5 -399q0 -252 -111 -397t-289 -145q-173 0 -291 100h-135zM303 258q103 -119 246 -119q108 0 176 105.5t68 285.5t-68 286t-176 106q-135 0 -246 -168v-496z" />
<glyph unicode="c" horiz-adv-x="933" d="M98 530q0 253 121 399t322 146q105 0 171 -25.5t144 -78.5l-68 -142q-44 34 -72.5 51.5t-75 32.5t-99.5 15q-123 0 -199 -107t-76 -291q0 -183 76 -290t199 -107q74 0 127 24.5t118 73.5l70 -139q-70 -54 -139.5 -79t-175.5 -25q-201 0 -322 144.5t-121 397.5z" />
<glyph unicode="d" horiz-adv-x="1058" d="M98 530q0 253 109.5 399t290.5 146q136 0 252 -133l6 2v684h168v-1628h-144l-16 137l-8 2q-124 -151 -279 -151q-166 0 -272.5 146t-106.5 396zM266 530q0 -180 68.5 -285.5t177.5 -105.5q139 0 244 189v426q-56 81 -114 124.5t-130 43.5q-108 0 -177 -106t-69 -286z" />
<glyph unicode="e" horiz-adv-x="987" d="M98 530q0 251 115.5 398t296.5 147q135 0 224 -69t129 -188.5t40 -287.5l-10 -53h-625q4 -162 79 -256t190 -94q143 0 280 94l60 -129q-148 -104 -338 -104q-201 0 -321 144.5t-120 397.5zM272 602h465q0 153 -58.5 245.5t-166.5 92.5q-105 0 -171.5 -101.5t-68.5 -236.5 z" />
<glyph unicode="f" horiz-adv-x="665" d="M45 924v139h127v217q0 162 80.5 255t193.5 93q70 0 128.5 -20.5t132.5 -63.5l-45 -125q-101 62 -179 62q-62 0 -103.5 -56t-41.5 -153v-209h233v-139h-233v-924h-166v924h-127z" />
<glyph unicode="g" d="M86 -111q0 65 27.5 131.5t79.5 120.5q-50 59 -50 146q0 101 78 172q-100 90 -100 258q0 167 84.5 262.5t265.5 95.5q59 0 107 -10.5t75 -23t66.5 -23t83.5 -10.5q62 0 139 55l47 -127q-79 -52 -151 -64q-33 20 -54 37q35 -77 35 -192q0 -166 -88.5 -252t-259.5 -86 q-50 0 -139 24q-21 -12 -34 -40.5t-13 -61.5q0 -34 19.5 -61.5t53.5 -30.5l248 -21q163 -13 237.5 -94t74.5 -205q0 -153 -104.5 -240t-321.5 -87q-218 0 -312 85.5t-94 241.5zM246 -98q0 -197 246 -197q129 0 193.5 50.5t64.5 135.5q0 67 -40 110t-128 52l-273 27 q-27 -24 -45 -80.5t-18 -97.5zM283 713q0 -90 49.5 -145.5t138.5 -55.5q92 0 139 55.5t47 145.5q0 128 -34 186q-3 2 -15 8t-17.5 8.5t-17.5 7t-21 7t-22.5 5.5t-28.5 4t-32 1q-186 0 -186 -227z" />
<glyph unicode="h" horiz-adv-x="1048" d="M131 0v1628h168v-710l6 -3q64 83 139.5 121.5t145.5 38.5q45 0 86.5 -11.5t85.5 -43.5t75.5 -82.5t51.5 -136t20 -195.5v-606h-168v612q0 88 -18 152.5t-48 97.5t-61.5 47.5t-66.5 14.5q-61 0 -129 -46.5t-119 -148.5v-729h-168z" />
<glyph unicode="i" horiz-adv-x="491" d="M131 1421q0 52 33.5 89.5t79.5 37.5q47 0 80.5 -37t33.5 -90q0 -54 -33.5 -92.5t-80.5 -38.5q-46 0 -79.5 38.5t-33.5 92.5zM162 0v1063h168v-1063h-168z" />
<glyph unicode="j" horiz-adv-x="518" d="M-6 -293q91 0 143.5 54.5t52.5 172.5v1129h166v-1124q0 -176 -80 -276.5t-202 -100.5q-32 0 -56 8zM158 1421q0 53 33.5 90t80.5 37q46 0 79.5 -37.5t33.5 -89.5q0 -54 -33.5 -92.5t-79.5 -38.5q-47 0 -80.5 38.5t-33.5 92.5z" />
<glyph unicode="k" horiz-adv-x="925" d="M131 0v1628h168v-1010h115l254 457l196 -12l-303 -502l354 -561l-200 -12l-297 512h-119v-500h-168z" />
<glyph unicode="l" horiz-adv-x="489" d="M121 330v1298h168v-1296q0 -109 29.5 -151t101.5 -42l-23 -143q-33 -10 -57 -10q-104 0 -161.5 88t-57.5 256z" />
<glyph unicode="m" horiz-adv-x="1593" d="M131 0v1063h143l17 -139l6 -2q59 79 128.5 116t131.5 37q84 0 158 -46.5t116 -156.5q37 59 79.5 101t83 63t74 30t65.5 9q45 0 87 -11.5t86 -43.5t75.5 -82.5t52 -136t20.5 -195.5v-606h-170v612q0 88 -17.5 152.5t-47.5 97.5t-61 47.5t-66 14.5q-51 0 -110.5 -46.5 t-104.5 -148.5v-729h-168v612q0 88 -18 152.5t-48.5 97.5t-62 47.5t-66.5 14.5q-51 0 -110.5 -46.5t-104.5 -148.5v-729h-168z" />
<glyph unicode="n" horiz-adv-x="1048" d="M131 0v1063h143l17 -154l6 -2q65 88 143 128t150 40q45 0 86.5 -11.5t85.5 -43.5t75.5 -82.5t51.5 -136t20 -195.5v-606h-168v612q0 88 -18 152.5t-48 97.5t-61.5 47.5t-66.5 14.5q-61 0 -129 -46.5t-119 -148.5v-729h-168z" />
<glyph unicode="o" horiz-adv-x="1062" d="M98 530q0 254 118.5 399.5t313.5 145.5t315 -145.5t120 -399.5q0 -251 -120 -396.5t-315 -145.5t-313.5 145t-118.5 397zM266 530q0 -181 73 -289t191 -108q120 0 193.5 108t73.5 289q0 183 -73.5 291.5t-193.5 108.5q-118 0 -191 -108.5t-73 -291.5z" />
<glyph unicode="p" horiz-adv-x="1054" d="M131 -426v1489h143l17 -148l6 -2q128 162 278 162q168 0 274.5 -147t106.5 -398q0 -253 -109.5 -397.5t-291.5 -144.5q-133 0 -250 137l-6 -2v-549h-168zM299 307q106 -168 244 -168q109 0 177 105.5t68 285.5t-68 286t-177 106q-75 0 -137 -51.5t-107 -139.5v-424z" />
<glyph unicode="q" horiz-adv-x="1054" d="M98 530q0 253 111 399t291 146q164 0 288 -102h136v-1399h-168v549l-6 2q-117 -137 -252 -137q-181 0 -290.5 144.5t-109.5 397.5zM266 530q0 -180 69 -285.5t177 -105.5q133 0 244 168v496q-103 119 -244 119q-109 0 -177.5 -106t-68.5 -286z" />
<glyph unicode="r" horiz-adv-x="694" d="M131 0v1063h143l17 -148l6 -2q60 86 132.5 124t137.5 38q61 0 111 -20l-41 -162q-44 18 -90 18q-39 0 -78.5 -14.5t-87 -59t-82.5 -114.5v-723h-168z" />
<glyph unicode="s" horiz-adv-x="778" d="M80 94l57 127q75 -46 125.5 -67t106.5 -21q73 0 123.5 45.5t50.5 122.5q0 47 -25 80.5t-65.5 54.5t-89.5 39.5t-97.5 42t-89 56t-65.5 88.5t-25 131q0 121 79 201.5t214 80.5q82 0 149.5 -25t141.5 -75l-58 -133q-120 90 -223 90q-61 0 -104 -38.5t-43 -98.5 q0 -45 25.5 -78.5t65.5 -54.5t89 -40t98 -43.5t89 -57t65.5 -88.5t25.5 -130q0 -151 -91 -233t-232 -82q-154 0 -297 106z" />
<glyph unicode="t" horiz-adv-x="747" d="M37 924v139h145l37 270h131v-270h264v-139h-264v-547q0 -66 14.5 -114t38 -71.5t47.5 -34t50 -10.5q82 0 162 64l45 -135q-123 -88 -242 -88q-38 0 -74 9.5t-75 35.5t-68 67t-47.5 110.5t-18.5 158.5v555h-145z" />
<glyph unicode="u" horiz-adv-x="1046" d="M135 459v604h166v-610q0 -89 18.5 -154t49 -98t62.5 -47.5t67 -14.5q58 0 126.5 47t120.5 148v729h166v-1063h-143l-16 156l-9 2q-64 -88 -141 -129t-147 -41q-46 0 -88 11.5t-85.5 44t-75 83.5t-51.5 136.5t-20 195.5z" />
<glyph unicode="v" horiz-adv-x="897" d="M20 1063l179 12l243 -782h11l245 782l179 -12l-375 -1063h-109z" />
<glyph unicode="w" horiz-adv-x="1349" d="M20 1063l181 12l209 -772h8l223 760h66l223 -760h8l211 772l180 -12l-336 -1063h-108l-209 715h-6l-213 -715h-105z" />
<glyph unicode="x" horiz-adv-x="935" d="M29 0l333 569l-288 494l194 12l199 -383l199 383l194 -12l-289 -494l336 -569l-194 -12l-246 461l-244 -461z" />
<glyph unicode="y" horiz-adv-x="892" d="M8 1063l182 12l252 -796h7l253 796l181 -12l-541 -1501l-166 12l184 508z" />
<glyph unicode="z" horiz-adv-x="866" d="M66 0v59l475 852h-449v152h701v-59l-469 -852h477v-152h-735z" />
<glyph unicode="{" horiz-adv-x="567" d="M49 608v125q73 25 101 99.5t28 201.5v283q0 155 71.5 244.5t196.5 89.5h60v-142h-78q-47 0 -82 -47.5t-35 -113.5v-379q0 -115 -39 -191.5t-84 -105.5q44 -28 83.5 -107t39.5 -194v-355q0 -75 36 -125.5t91 -50.5h68v-141h-60q-124 0 -196 90.5t-72 245.5v270 q0 127 -28 202.5t-101 100.5z" />
<glyph unicode="|" horiz-adv-x="411" d="M139 -315v1966h133v-1966h-133z" />
<glyph unicode="}" horiz-adv-x="567" d="M61 -160h68q55 0 91 50.5t36 125.5v355q0 115 39.5 194t83.5 107q-45 29 -84 105.5t-39 191.5v379q0 66 -35 113.5t-82 47.5h-78v142h60q125 0 196.5 -89.5t71.5 -244.5v-283q0 -127 28 -201.5t101 -99.5v-125q-73 -25 -101 -100.5t-28 -202.5v-270q0 -155 -72 -245.5 t-196 -90.5h-60v141z" />
<glyph unicode="~" horiz-adv-x="1073" d="M133 682l64 127q4 -3 25.5 -22t27.5 -23.5t24 -17.5t29 -16.5t28.5 -8t35.5 -4.5q44 0 99 24t114.5 48t113.5 24q36 0 63.5 -5.5t60 -24t53 -34t69.5 -53.5l-68 -125q-3 3 -17.5 15.5t-19 16t-17.5 14t-19 14t-18 11t-20 10.5t-19.5 7t-22.5 5.5t-23 1.5q-35 0 -88.5 -24 t-117 -48.5t-123.5 -24.5q-63 0 -106.5 23t-127.5 90z" />
<glyph unicode="&#xa1;" horiz-adv-x="600" d="M184 973q0 55 34.5 94t80.5 39q49 0 83 -38.5t34 -94.5q0 -57 -34 -97t-83 -40q-46 0 -80.5 40.5t-34.5 96.5zM213 -438l29 1083h118l27 -1083h-174z" />
<glyph unicode="&#xa2;" d="M133 766q0 232 101 375.5t272 163.5v260h133v-258q52 -4 101 -21t74 -31.5t77 -48.5l-68 -141q-45 33 -72.5 50t-75.5 32.5t-100 15.5q-122 0 -198 -107t-76 -290t76 -290t198 -107q74 0 126 24t120 74l70 -139q-63 -47 -119.5 -72t-132.5 -31v-258h-133v260 q-171 22 -272 164t-101 375z" />
<glyph unicode="&#xa3;" d="M88 0v160h137v520h-135v131h135v219q0 248 104.5 381t268.5 133q192 0 338 -104l-55 -144q-73 48 -133 71.5t-125 23.5q-95 0 -158.5 -93.5t-63.5 -289.5v-197h371l-20 -131h-351v-520h480v-160h-793z" />
<glyph unicode="&#xa4;" horiz-adv-x="1079" d="M90 272l119 146q-78 134 -78 307q0 175 78 307l-119 146l94 102l117 -145q104 104 240 104q132 0 239 -104l117 145l92 -102l-117 -146q80 -137 80 -307t-80 -307l117 -146l-92 -102l-117 145q-108 -102 -239 -102q-133 0 -240 102l-117 -145zM266 725q0 -153 80.5 -262 t194.5 -109q115 0 195.5 109t80.5 262q0 152 -80.5 262.5t-195.5 110.5q-113 0 -194 -110.5t-81 -262.5z" />
<glyph unicode="&#xa5;" d="M70 1532l188 12l250 -766h8l250 766l188 -12l-204 -549h172l-29 -123h-191l-73 -205h231l-29 -123h-231v-532h-176v532h-242l-28 123h241l-73 205h-201l-31 123h184z" />
<glyph unicode="&#xa6;" horiz-adv-x="411" d="M139 -317v817h133v-817h-133zM139 834v817h133v-817h-133z" />
<glyph unicode="&#xa7;" horiz-adv-x="948" d="M90 670q0 96 36.5 168t111.5 147q-80 96 -80 221q0 159 93.5 248.5t227.5 89.5q75 0 161 -41t146 -119l-79 -112q-43 63 -110 98t-118 35q-76 0 -125 -53t-49 -144q0 -52 30.5 -97.5t79.5 -80t108 -68t117.5 -70.5t107.5 -79t79.5 -102t30.5 -131q0 -96 -36.5 -170 t-110.5 -146q80 -100 80 -221q0 -107 -45.5 -185.5t-117 -115.5t-157.5 -37q-76 0 -161.5 41.5t-147.5 120.5l80 110q44 -64 110 -98.5t119 -34.5q74 0 123 53t49 144q0 53 -30.5 98.5t-79.5 80t-108 68t-117.5 71t-107.5 79t-79.5 101.5t-30.5 131zM240 680q0 -40 22 -75.5 t63.5 -67t84.5 -57.5t102.5 -62t99.5 -66q51 51 75 102t24 115q0 40 -22.5 75.5t-64.5 67t-85.5 57.5t-103.5 62t-101 66q-94 -98 -94 -217z" />
<glyph unicode="&#xa8;" horiz-adv-x="579" d="M18 1354q0 47 31 81.5t72 34.5t71.5 -33.5t30.5 -82.5q0 -48 -30 -83.5t-72 -35.5t-72.5 35.5t-30.5 83.5zM356 1354q0 47 30.5 81.5t70.5 34.5q42 0 73 -33.5t31 -82.5q0 -48 -30 -83.5t-72 -35.5q-41 0 -72 36t-31 83z" />
<glyph unicode="&#xa9;" horiz-adv-x="1423" d="M90 766q0 159 48.5 302.5t131.5 248t198.5 166t244.5 61.5q172 0 315 -104t225 -283t82 -391t-82 -391t-225 -283t-315 -104q-129 0 -244.5 61.5t-198.5 166t-131.5 248t-48.5 302.5zM186 766q0 -137 40.5 -262.5t110.5 -218t168 -147t208 -54.5q146 0 267 93t189 249 t68 340t-68 340t-189 249t-267 93q-110 0 -208 -54.5t-168 -147t-110.5 -218t-40.5 -262.5zM367 768q0 208 98.5 326t253.5 118q57 0 121 -17t110 -46l-51 -102q-35 22 -85.5 35.5t-94.5 13.5q-103 0 -170.5 -90t-67.5 -238q0 -155 63 -242.5t175 -87.5q88 0 188 66l54 -103 q-124 -79 -242 -79q-167 0 -259.5 115t-92.5 331z" />
<glyph unicode="&#xaa;" horiz-adv-x="589" d="M57 1090q0 23 3.5 44.5t17 50t36 48.5t64.5 34.5t98 14.5t127 -29q-1 98 -34.5 144.5t-85.5 46.5q-37 0 -68 -10t-78 -41l-43 86q102 65 201 65q108 0 171.5 -72.5t63.5 -205.5v-373h-108l-10 78h-6q-66 -86 -162 -86q-83 0 -135 57t-52 148zM180 1094q0 -47 27 -79 t69 -32q46 0 86.5 45t40.5 141q-56 29 -112 29q-62 0 -86.5 -32.5t-24.5 -71.5z" />
<glyph unicode="&#xab;" horiz-adv-x="956" d="M106 735v17l267 460l94 -77l-211 -390l211 -395l-94 -78zM473 735v17l264 460l97 -77l-213 -390l213 -395l-97 -78z" />
<glyph unicode="&#xac;" horiz-adv-x="1071" d="M104 842v145h863v-588h-133v443h-730z" />
<glyph unicode="&#xad;" horiz-adv-x="571" d="M66 524v148h440v-148h-440z" />
<glyph unicode="&#xae;" horiz-adv-x="1423" d="M90 766q0 211 83.5 390.5t227 283.5t312.5 104q127 0 242 -61.5t198.5 -165.5t132.5 -248.5t49 -302.5t-49 -302.5t-132.5 -248.5t-198.5 -165.5t-242 -61.5q-169 0 -312.5 104t-227 283.5t-83.5 390.5zM186 766q0 -184 68.5 -341t190.5 -251t268 -94t267 94t189 251 t68 341t-68 340.5t-189 250t-267 93.5q-110 0 -208 -55t-168 -147.5t-110.5 -218.5t-40.5 -263zM473 334v895h268q49 0 89.5 -18t67 -46.5t45 -66t26.5 -75.5t8 -75q0 -80 -35.5 -153t-103.5 -103l153 -358l-127 -10l-137 342h-141v-332h-113zM586 770h153q44 0 73.5 30 t40.5 67.5t11 76.5t-12 76t-41.5 65.5t-71.5 28.5h-153v-344z" />
<glyph unicode="&#xaf;" horiz-adv-x="489" d="M16 1288v125h457v-125h-457z" />
<glyph unicode="&#xb0;" horiz-adv-x="620" d="M70 1225q0 133 67 220t185 87q115 0 182 -87.5t67 -219.5q0 -135 -67 -222.5t-182 -87.5q-118 0 -185 87.5t-67 222.5zM164 1225q0 -91 40 -150t118 -59q76 0 115.5 59.5t39.5 149.5q0 89 -40 149t-115 60q-77 0 -117.5 -59.5t-40.5 -149.5z" />
<glyph unicode="&#xb1;" horiz-adv-x="1071" d="M104 158v147h863v-147h-863zM104 756v147h365v324h133v-324h365v-147h-365v-324h-133v324h-365z" />
<glyph unicode="&#xb2;" horiz-adv-x="608" d="M63 594v84q336 349 336 555q0 77 -39.5 122.5t-99.5 45.5q-57 0 -151 -72l-43 119q57 46 116.5 66t104.5 20q114 0 187 -78t73 -207q0 -218 -279 -510l2 -6h269v-139h-476z" />
<glyph unicode="&#xb3;" horiz-adv-x="608" d="M70 678l55 115q81 -70 137 -70q57 0 95 44.5t38 117.5q0 68 -41.5 109.5t-105.5 41.5h-39v119h37q51 0 86 37t35 88q0 59 -33 89t-74 30q-64 0 -141 -68l-47 117q103 84 207 84q98 0 163.5 -61.5t65.5 -165.5q0 -38 -8.5 -73t-35 -71.5t-69.5 -54.5v-8q70 -20 107 -86.5 t37 -130.5q0 -128 -72.5 -207.5t-187.5 -79.5q-101 0 -209 84z" />
<glyph unicode="&#xb4;" horiz-adv-x="415" d="M-4 1198l158 307h198l-215 -307h-141z" />
<glyph unicode="&#xb5;" horiz-adv-x="1028" d="M125 -426v1489h166v-610q0 -72 12.5 -128.5t32 -90.5t46 -56t51.5 -30.5t52 -8.5q60 0 129 47t121 148v729h166v-1063h-143l-17 156l-6 2q-65 -88 -143 -129t-148 -41q-98 0 -149 86l-4 -2v-498h-166z" />
<glyph unicode="&#xb6;" horiz-adv-x="1161" d="M74 1028q0 136 57 252t153.5 184t209.5 68h520v-1958h-133v1798h-246v-1798h-131v954q-116 0 -215 67.5t-157 182.5t-58 250z" />
<glyph unicode="&#xb7;" horiz-adv-x="446" d="M109 776q0 56 33.5 95.5t82.5 39.5q45 0 79 -40t34 -95q0 -54 -34 -93.5t-79 -39.5q-49 0 -82.5 39t-33.5 94z" />
<glyph unicode="&#xb8;" horiz-adv-x="378" d="M37 -301l205 352l100 -59l-178 -379z" />
<glyph unicode="&#xb9;" horiz-adv-x="606" d="M137 1384l221 148h103v-938h-146v764l-135 -74z" />
<glyph unicode="&#xba;" horiz-adv-x="645" d="M57 1212q0 155 73.5 243.5t191.5 88.5q119 0 191.5 -88t72.5 -244q0 -152 -72.5 -239.5t-191.5 -87.5q-118 0 -191.5 88t-73.5 239zM182 1212q0 -99 38.5 -160t101.5 -61t102 61.5t39 159.5q0 100 -39 162t-102 62t-101.5 -62t-38.5 -162z" />
<glyph unicode="&#xbb;" horiz-adv-x="956" d="M123 350l213 395l-213 390l96 77l264 -460v-17l-264 -463zM489 350l211 395l-211 390l97 77l264 -460v-17l-264 -463z" />
<glyph unicode="&#xbc;" horiz-adv-x="1449" d="M104 1384l222 148h104v-938h-147v764l-136 -74zM307 0l744 1544l125 -12l-752 -1544zM788 246l375 700h103v-629h77v-124h-77v-193h-136v193h-337zM956 324l2 -7h172v326l-6 2z" />
<glyph unicode="&#xbd;" horiz-adv-x="1447" d="M41 1384l223 148h103v-938h-148v764l-135 -74zM246 0l741 1544l125 -12l-752 -1544zM924 0v84q338 345 338 555q0 77 -39.5 119.5t-100.5 42.5q-68 0 -151 -66l-43 119q55 46 114.5 66t104.5 20q114 0 187 -78t73 -207q0 -218 -279 -510l5 -6h268v-139h-477z" />
<glyph unicode="&#xbe;" horiz-adv-x="1449" d="M70 678l55 121q83 -68 141 -68q55 0 92 41t37 113q0 68 -40.5 109.5t-104.5 41.5h-41v119h39q49 0 85 37t36 88q0 59 -33 86t-76 27q-62 0 -139 -68l-49 123q103 84 207 84q100 0 165.5 -61.5t65.5 -165.5q0 -62 -26 -117.5t-89 -81.5v-8q70 -20 107 -86.5t37 -130.5 q0 -128 -72.5 -207.5t-187.5 -79.5q-101 0 -209 84zM342 0l743 1544l123 -12l-749 -1544zM823 246l375 700h100v-629h78v-124h-78v-193h-133v193h-338zM989 324l2 -7h174v326l-6 2z" />
<glyph unicode="&#xbf;" horiz-adv-x="817" d="M70 -57q0 285 292 483l19 231h111l22 -297q-54 -35 -100.5 -75t-89 -90t-67 -109.5t-24.5 -120.5q0 -124 61 -192t146 -68q56 0 106 30t113 99l74 -125q-81 -79 -154 -113t-157 -34q-68 0 -129.5 22.5t-112 67t-80.5 119.5t-30 172zM319 985q0 55 34.5 94t82.5 39 q47 0 81 -39t34 -94q0 -57 -34 -97t-81 -40q-48 0 -82.5 40t-34.5 97z" />
<glyph unicode="&#xc0;" horiz-adv-x="1187" d="M12 0l535 1532h92l537 -1532l-179 -12l-116 354h-574l-114 -354zM360 494h467l-231 733h-6zM416 1937h196l158 -307h-141z" />
<glyph unicode="&#xc1;" horiz-adv-x="1187" d="M12 0l535 1532h92l537 -1532l-179 -12l-116 354h-574l-114 -354zM360 494h467l-231 733h-6zM455 1630l157 307h199l-215 -307h-141z" />
<glyph unicode="&#xc2;" horiz-adv-x="1187" d="M12 0l535 1532h92l537 -1532l-179 -12l-116 354h-574l-114 -354zM338 1628l170 307h170l170 -307h-121l-133 193l-135 -193h-121zM360 494h467l-231 733h-6z" />
<glyph unicode="&#xc3;" horiz-adv-x="1187" d="M12 0l535 1532h92l537 -1532l-179 -12l-116 354h-574l-114 -354zM334 1753l49 113q52 -49 96 -49q26 0 58.5 19.5t74.5 39.5t90 20q77 0 156 -75l-45 -119q-58 51 -113 51q-34 0 -107 -39t-116 -39q-73 0 -143 78zM360 494h467l-231 733h-6z" />
<glyph unicode="&#xc4;" horiz-adv-x="1187" d="M12 0l535 1532h92l537 -1532l-179 -12l-116 354h-574l-114 -354zM322 1780q0 47 30.5 81.5t71.5 34.5t71.5 -33.5t30.5 -82.5q0 -48 -30 -83.5t-72 -35.5t-72 35.5t-30 83.5zM360 494h467l-231 733h-6zM659 1780q0 47 30.5 81.5t70.5 34.5q42 0 73 -33.5t31 -82.5 q0 -48 -30 -83.5t-72 -35.5q-41 0 -72 36t-31 83z" />
<glyph unicode="&#xc5;" horiz-adv-x="1187" d="M12 0l535 1532h92l537 -1532l-179 -12l-116 354h-574l-114 -354zM360 494h467l-231 733h-6zM430 1792q0 86 45.5 141.5t116.5 55.5q68 0 115 -56t47 -141q0 -86 -46.5 -141.5t-115.5 -55.5q-71 0 -116.5 55t-45.5 142zM506 1792q0 -54 22.5 -87.5t63.5 -33.5t62.5 33 t21.5 88q0 53 -21.5 86t-62.5 33t-63.5 -33t-22.5 -86z" />
<glyph unicode="&#xc6;" horiz-adv-x="1681" d="M12 2l535 1530h1032v-160h-608v-502h540v-151h-540v-559h608v-160h-784v342h-488l-114 -354zM360 494h435v878h-156z" />
<glyph unicode="&#xc7;" horiz-adv-x="1200" d="M98 766q0 163 38 303.5t110.5 246.5t186.5 167t257 61q115 0 214.5 -38.5t203.5 -114.5l-74 -152q-87 71 -168.5 108t-175.5 37q-132 0 -228 -85t-142 -223t-46 -310q0 -127 27 -238.5t78.5 -196.5t131.5 -134.5t179 -49.5q93 0 174.5 37.5t169.5 108.5l74 -152 q-92 -68 -176 -106t-180 -45l-179 -377l-127 86l164 293q-164 18 -281.5 126.5t-174 274.5t-56.5 373z" />
<glyph unicode="&#xc8;" horiz-adv-x="1081" d="M145 0v1532h834v-160h-657v-502h587v-151h-587v-559h657v-160h-834zM346 1935h197l157 -307h-141z" />
<glyph unicode="&#xc9;" horiz-adv-x="1081" d="M145 0v1532h834v-160h-657v-502h587v-151h-587v-559h657v-160h-834zM485 1628l158 307h199l-215 -307h-142z" />
<glyph unicode="&#xca;" horiz-adv-x="1081" d="M145 0v1532h834v-160h-657v-502h587v-151h-587v-559h657v-160h-834zM311 1628l170 307h170l170 -307h-121l-133 193l-135 -193h-121z" />
<glyph unicode="&#xcb;" horiz-adv-x="1081" d="M145 0v1532h834v-160h-657v-502h587v-151h-587v-559h657v-160h-834zM326 1784q0 47 30.5 82t71.5 35t71.5 -34t30.5 -83q0 -48 -30 -83.5t-72 -35.5t-72 35.5t-30 83.5zM664 1784q0 47 30 82t70 35q42 0 73 -34t31 -83q0 -48 -30 -83.5t-72 -35.5q-41 0 -71.5 36 t-30.5 83z" />
<glyph unicode="&#xcc;" horiz-adv-x="466" d="M49 1935h197l157 -307h-141zM145 0v1532h177v-1532h-177z" />
<glyph unicode="&#xcd;" horiz-adv-x="466" d="M74 1628l157 307h199l-215 -307h-141zM145 0v1532h177v-1532h-177z" />
<glyph unicode="&#xce;" horiz-adv-x="466" d="M-20 1628l170 307h169l170 -307h-120l-133 193l-136 -193h-120zM145 0v1532h177v-1532h-177z" />
<glyph unicode="&#xcf;" horiz-adv-x="466" d="M-37 1788q0 47 31 82t72 35t71.5 -34t30.5 -83q0 -48 -30 -83.5t-72 -35.5t-72.5 35.5t-30.5 83.5zM145 0v1532h177v-1532h-177zM301 1788q0 47 30 82t70 35q42 0 73.5 -34t31.5 -83q0 -48 -30.5 -83.5t-72.5 -35.5q-41 0 -71.5 36t-30.5 83z" />
<glyph unicode="&#xd0;" horiz-adv-x="1259" d="M33 688v158h125v686h417q141 0 253.5 -59.5t184.5 -163.5t110 -242.5t38 -300.5t-38 -300.5t-110 -242.5t-184.5 -163.5t-253.5 -59.5h-417v688h-125zM334 160h227q135 0 232 79.5t144.5 215t47.5 311.5t-47.5 311.5t-144.5 215t-232 79.5h-227v-526h303v-158h-303v-528z " />
<glyph unicode="&#xd1;" horiz-adv-x="1290" d="M133 0v1532h80l737 -1135l6 2v1133h174v-1532h-83l-732 1122l-6 -2v-1120h-176zM379 1751l49 113q52 -49 96 -49q26 0 59 19.5t75 39.5t90 20q76 0 155 -75l-45 -119q-58 51 -113 51q-35 0 -107 -39t-116 -39q-73 0 -143 78z" />
<glyph unicode="&#xd2;" horiz-adv-x="1384" d="M98 766q0 221 67.5 395t204 278.5t322.5 104.5q187 0 323.5 -104.5t203.5 -278.5t67 -395t-67 -395t-203.5 -278.5t-323.5 -104.5q-186 0 -322.5 104.5t-204 278.5t-67.5 395zM274 766q0 -170 47 -309t144 -225.5t227 -86.5q99 0 179.5 50t132 135.5t79 197.5t27.5 238 t-27.5 237.5t-79 196.5t-132 134.5t-179.5 49.5q-98 0 -178.5 -49.5t-132 -134.5t-79.5 -196.5t-28 -237.5zM483 1935h197l158 -307h-142z" />
<glyph unicode="&#xd3;" horiz-adv-x="1384" d="M98 766q0 221 67.5 395t204 278.5t322.5 104.5q187 0 323.5 -104.5t203.5 -278.5t67 -395t-67 -395t-203.5 -278.5t-323.5 -104.5q-186 0 -322.5 104.5t-204 278.5t-67.5 395zM274 766q0 -170 47 -309t144 -225.5t227 -86.5q99 0 179.5 50t132 135.5t79 197.5t27.5 238 t-27.5 237.5t-79 196.5t-132 134.5t-179.5 49.5q-98 0 -178.5 -49.5t-132 -134.5t-79.5 -196.5t-28 -237.5zM580 1628l157 307h199l-215 -307h-141z" />
<glyph unicode="&#xd4;" horiz-adv-x="1384" d="M98 766q0 221 67.5 395t204 278.5t322.5 104.5q187 0 323.5 -104.5t203.5 -278.5t67 -395t-67 -395t-203.5 -278.5t-323.5 -104.5q-186 0 -322.5 104.5t-204 278.5t-67.5 395zM274 766q0 -170 47 -309t144 -225.5t227 -86.5q99 0 179.5 50t132 135.5t79 197.5t27.5 238 t-27.5 237.5t-79 196.5t-132 134.5t-179.5 49.5q-98 0 -178.5 -49.5t-132 -134.5t-79.5 -196.5t-28 -237.5zM440 1628l170 307h170l170 -307h-121l-133 193l-135 -193h-121z" />
<glyph unicode="&#xd5;" horiz-adv-x="1384" d="M98 766q0 221 67.5 395t204 278.5t322.5 104.5q187 0 323.5 -104.5t203.5 -278.5t67 -395t-67 -395t-203.5 -278.5t-323.5 -104.5q-186 0 -322.5 104.5t-204 278.5t-67.5 395zM274 766q0 -170 47 -309t144 -225.5t227 -86.5q99 0 179.5 50t132 135.5t79 197.5t27.5 238 t-27.5 237.5t-79 196.5t-132 134.5t-179.5 49.5q-98 0 -178.5 -49.5t-132 -134.5t-79.5 -196.5t-28 -237.5zM424 1755l49 113q52 -49 96 -49q26 0 59 19.5t75 39.5t90 20q76 0 155 -75l-45 -119q-58 51 -112 51q-35 0 -108 -39t-116 -39q-73 0 -143 78z" />
<glyph unicode="&#xd6;" horiz-adv-x="1384" d="M98 766q0 221 67.5 395t204 278.5t322.5 104.5q187 0 323.5 -104.5t203.5 -278.5t67 -395t-67 -395t-203.5 -278.5t-323.5 -104.5q-186 0 -322.5 104.5t-204 278.5t-67.5 395zM274 766q0 -170 47 -309t144 -225.5t227 -86.5q99 0 179.5 50t132 135.5t79 197.5t27.5 238 t-27.5 237.5t-79 196.5t-132 134.5t-179.5 49.5q-98 0 -178.5 -49.5t-132 -134.5t-79.5 -196.5t-28 -237.5zM412 1784q0 47 30.5 82t71.5 35t71.5 -34t30.5 -83q0 -48 -30 -83.5t-72 -35.5t-72 35.5t-30 83.5zM750 1784q0 47 30 82t70 35q42 0 73 -34t31 -83 q0 -48 -30 -83.5t-72 -35.5q-41 0 -71.5 36t-30.5 83z" />
<glyph unicode="&#xd7;" horiz-adv-x="1073" d="M150 322l290 370l-290 369l92 104l293 -370l292 370l97 -104l-295 -369l295 -370l-97 -103l-292 369l-293 -369z" />
<glyph unicode="&#xd8;" horiz-adv-x="1386" d="M98 766q0 221 67.5 395t204 278.5t322.5 104.5q226 0 377 -151l107 151l73 -84l-106 -147q143 -216 143 -547q0 -221 -67 -395t-203.5 -278.5t-323.5 -104.5q-228 0 -381 153l-104 -149l-74 82l105 149q-140 212 -140 543zM274 766q0 -246 88 -401l594 899 q-114 127 -264 127q-98 0 -178.5 -50t-132 -136t-79.5 -198.5t-28 -240.5zM426 270q111 -131 266 -131q99 0 179.5 50t132 136.5t79 199.5t27.5 241q0 246 -90 408z" />
<glyph unicode="&#xd9;" horiz-adv-x="1269" d="M131 659v873h176v-873q0 -150 36.5 -266.5t112 -186t179.5 -69.5t179.5 69.5t112 186t36.5 266.5v873h176v-873q0 -197 -56 -347t-171 -238t-277 -88t-277 88t-171 238t-56 347zM403 1935h197l158 -307h-142z" />
<glyph unicode="&#xda;" horiz-adv-x="1269" d="M131 659v873h176v-873q0 -150 36.5 -266.5t112 -186t179.5 -69.5t179.5 69.5t112 186t36.5 266.5v873h176v-873q0 -197 -56 -347t-171 -238t-277 -88t-277 88t-171 238t-56 347zM541 1628l157 307h199l-215 -307h-141z" />
<glyph unicode="&#xdb;" horiz-adv-x="1269" d="M131 659v873h176v-873q0 -150 36.5 -266.5t112 -186t179.5 -69.5t179.5 69.5t112 186t36.5 266.5v873h176v-873q0 -197 -56 -347t-171 -238t-277 -88t-277 88t-171 238t-56 347zM377 1628l170 307h170l170 -307h-121l-133 193l-135 -193h-121z" />
<glyph unicode="&#xdc;" horiz-adv-x="1269" d="M131 659v873h176v-873q0 -150 36.5 -266.5t112 -186t179.5 -69.5t179.5 69.5t112 186t36.5 266.5v873h176v-873q0 -197 -56 -347t-171 -238t-277 -88t-277 88t-171 238t-56 347zM360 1784q0 47 31 82t72 35t71.5 -34t30.5 -83q0 -48 -30 -83.5t-72 -35.5t-72.5 35.5 t-30.5 83.5zM698 1784q0 47 30.5 82t70.5 35q42 0 73 -34t31 -83q0 -48 -30 -83.5t-72 -35.5q-41 0 -72 36t-31 83z" />
<glyph unicode="&#xdd;" horiz-adv-x="1083" d="M12 1532l203 12l324 -794h6l321 794l205 -12l-442 -940v-592h-176v588zM479 1628l158 307h199l-215 -307h-142z" />
<glyph unicode="&#xde;" horiz-adv-x="1079" d="M145 0v1532h177v-209h233q89 0 171 -40t144 -110.5t99 -175t37 -225.5q0 -122 -37 -226.5t-99 -175t-144 -110t-171 -39.5h-233v-221h-177zM322 377h213q121 0 207.5 110.5t86.5 284.5t-86.5 284.5t-207.5 110.5h-213v-790z" />
<glyph unicode="&#xdf;" horiz-adv-x="1091" d="M125 0v1174q0 208 109 332t278 124q184 0 289.5 -117t105.5 -294q0 -113 -37.5 -201t-107.5 -137l2 -9q102 -40 167.5 -156.5t65.5 -262.5q0 -123 -48.5 -227t-134 -165t-187.5 -61h-191v152h133q103 0 177.5 86t74.5 227q0 135 -72 223t-174 88h-139v142h129 q71 0 122.5 80.5t51.5 197.5q0 124 -65 204.5t-162 80.5q-98 0 -159.5 -86t-61.5 -224v-1171h-166z" />
<glyph unicode="&#xe0;" horiz-adv-x="987" d="M86 326q0 38 5.5 73.5t27.5 83t58.5 81t105.5 57.5t161 24q50 0 117 -14t121 -41q0 174 -60 259t-165 85q-69 0 -126 -23t-132 -71l-58 129q177 106 330 106q173 0 276 -120.5t103 -336.5v-618h-139l-21 166l-6 2q-28 -50 -65.5 -87t-76.5 -56.5t-75 -28t-70 -8.5 q-141 0 -226 93.5t-85 244.5zM231 1505h197l158 -307h-142zM258 334q0 -92 49.5 -150.5t130.5 -58.5q28 0 58 9t64 33.5t60.5 62t44 101.5t17.5 144q-104 55 -217 55q-51 0 -90 -14t-60.5 -34.5t-35 -48.5t-17.5 -51.5t-4 -47.5z" />
<glyph unicode="&#xe1;" horiz-adv-x="987" d="M86 326q0 38 5.5 73.5t27.5 83t58.5 81t105.5 57.5t161 24q50 0 117 -14t121 -41q0 174 -60 259t-165 85q-69 0 -126 -23t-132 -71l-58 129q177 106 330 106q173 0 276 -120.5t103 -336.5v-618h-139l-21 166l-6 2q-28 -50 -65.5 -87t-76.5 -56.5t-75 -28t-70 -8.5 q-141 0 -226 93.5t-85 244.5zM258 334q0 -92 49.5 -150.5t130.5 -58.5q28 0 58 9t64 33.5t60.5 62t44 101.5t17.5 144q-104 55 -217 55q-51 0 -90 -14t-60.5 -34.5t-35 -48.5t-17.5 -51.5t-4 -47.5zM414 1198l157 307h199l-215 -307h-141z" />
<glyph unicode="&#xe2;" horiz-adv-x="987" d="M86 326q0 38 5.5 73.5t27.5 83t58.5 81t105.5 57.5t161 24q50 0 117 -14t121 -41q0 174 -60 259t-165 85q-69 0 -126 -23t-132 -71l-58 129q177 106 330 106q173 0 276 -120.5t103 -336.5v-618h-139l-21 166l-6 2q-28 -50 -65.5 -87t-76.5 -56.5t-75 -28t-70 -8.5 q-141 0 -226 93.5t-85 244.5zM233 1198l170 307h170l170 -307h-120l-134 193l-135 -193h-121zM258 334q0 -92 49.5 -150.5t130.5 -58.5q28 0 58 9t64 33.5t60.5 62t44 101.5t17.5 144q-104 55 -217 55q-51 0 -90 -14t-60.5 -34.5t-35 -48.5t-17.5 -51.5t-4 -47.5z" />
<glyph unicode="&#xe3;" horiz-adv-x="987" d="M86 326q0 38 5.5 73.5t27.5 83t58.5 81t105.5 57.5t161 24q50 0 117 -14t121 -41q0 174 -60 259t-165 85q-69 0 -126 -23t-132 -71l-58 129q177 106 330 106q173 0 276 -120.5t103 -336.5v-618h-139l-21 166l-6 2q-28 -50 -65.5 -87t-76.5 -56.5t-75 -28t-70 -8.5 q-141 0 -226 93.5t-85 244.5zM229 1294l50 113q52 -49 96 -49q26 0 58.5 20t74.5 40t90 20q76 0 156 -76l-45 -119q-58 51 -113 51q-34 0 -107 -38.5t-116 -38.5q-75 0 -144 77zM258 334q0 -92 49.5 -150.5t130.5 -58.5q28 0 58 9t64 33.5t60.5 62t44 101.5t17.5 144 q-104 55 -217 55q-51 0 -90 -14t-60.5 -34.5t-35 -48.5t-17.5 -51.5t-4 -47.5z" />
<glyph unicode="&#xe4;" horiz-adv-x="987" d="M86 326q0 38 5.5 73.5t27.5 83t58.5 81t105.5 57.5t161 24q50 0 117 -14t121 -41q0 174 -60 259t-165 85q-69 0 -126 -23t-132 -71l-58 129q177 106 330 106q173 0 276 -120.5t103 -336.5v-618h-139l-21 166l-6 2q-28 -50 -65.5 -87t-76.5 -56.5t-75 -28t-70 -8.5 q-141 0 -226 93.5t-85 244.5zM207 1354q0 47 30.5 81.5t71.5 34.5t72 -34t31 -82t-30.5 -83.5t-72.5 -35.5t-72 35.5t-30 83.5zM258 334q0 -92 49.5 -150.5t130.5 -58.5q28 0 58 9t64 33.5t60.5 62t44 101.5t17.5 144q-104 55 -217 55q-51 0 -90 -14t-60.5 -34.5t-35 -48.5 t-17.5 -51.5t-4 -47.5zM545 1354q0 47 30 81.5t70 34.5q42 0 73.5 -33.5t31.5 -82.5q0 -48 -30.5 -83.5t-72.5 -35.5q-41 0 -71.5 36t-30.5 83z" />
<glyph unicode="&#xe5;" horiz-adv-x="987" d="M86 326q0 38 5.5 73.5t27.5 83t58.5 81t105.5 57.5t161 24q50 0 117 -14t121 -41q0 174 -60 259t-165 85q-69 0 -126 -23t-132 -71l-58 129q177 106 330 106q173 0 276 -120.5t103 -336.5v-618h-139l-21 166l-6 2q-28 -50 -65.5 -87t-76.5 -56.5t-75 -28t-70 -8.5 q-141 0 -226 93.5t-85 244.5zM258 334q0 -92 49.5 -150.5t130.5 -58.5q28 0 58 9t64 33.5t60.5 62t44 101.5t17.5 144q-104 55 -217 55q-51 0 -90 -14t-60.5 -34.5t-35 -48.5t-17.5 -51.5t-4 -47.5zM328 1389q0 86 45 141t116 55q68 0 115 -55.5t47 -140.5 q0 -86 -46.5 -141.5t-115.5 -55.5q-71 0 -116 55t-45 142zM403 1389q0 -54 22.5 -87.5t63.5 -33.5t62.5 33t21.5 88q0 53 -21.5 85.5t-62.5 32.5t-63.5 -32.5t-22.5 -85.5z" />
<glyph unicode="&#xe6;" horiz-adv-x="1570" d="M86 326q0 38 5.5 73.5t27.5 83t58.5 81t105.5 57.5t161 24q50 0 117 -14t121 -41q0 174 -60 259t-165 85q-68 0 -124 -23t-134 -71l-58 129q177 106 330 106q103 0 183 -55t126 -156q52 101 134.5 156t179.5 55q135 0 224 -69t129 -188.5t40 -287.5l-10 -53h-625 q4 -162 80.5 -256t191.5 -94q137 0 277 94l59 -129q-151 -106 -338 -106q-245 0 -350 260q-108 -258 -375 -258q-141 0 -226 93.5t-85 244.5zM258 334q0 -92 49.5 -150.5t130.5 -58.5q28 0 58 9t64 33.5t60.5 62t44 101.5t17.5 144q-104 55 -217 55q-51 0 -90 -14 t-60.5 -34.5t-35 -48.5t-17.5 -51.5t-4 -47.5zM854 604h465q0 146 -61.5 241t-165.5 95q-101 0 -169.5 -102t-68.5 -234z" />
<glyph unicode="&#xe7;" horiz-adv-x="919" d="M98 530q0 253 121 399t322 146q105 0 171 -25.5t144 -78.5l-68 -142q-44 34 -72.5 51.5t-75 32.5t-99.5 15q-123 0 -199 -107t-76 -291q0 -183 76 -290t199 -107q74 0 127 24.5t118 73.5l70 -139q-60 -46 -114.5 -70t-125.5 -30l-180 -379l-127 86l164 293 q-173 21 -274 162.5t-101 375.5z" />
<glyph unicode="&#xe8;" horiz-adv-x="987" d="M98 530q0 251 115.5 398t296.5 147q135 0 224 -69t129 -188.5t40 -287.5l-10 -53h-625q4 -162 79 -256t190 -94q143 0 280 94l60 -129q-148 -104 -338 -104q-201 0 -321 144.5t-120 397.5zM272 602h465q0 153 -58.5 245.5t-166.5 92.5q-105 0 -171.5 -101.5t-68.5 -236.5 zM299 1505h197l157 -307h-141z" />
<glyph unicode="&#xe9;" horiz-adv-x="987" d="M98 530q0 251 115.5 398t296.5 147q135 0 224 -69t129 -188.5t40 -287.5l-10 -53h-625q4 -162 79 -256t190 -94q143 0 280 94l60 -129q-148 -104 -338 -104q-201 0 -321 144.5t-120 397.5zM272 602h465q0 153 -58.5 245.5t-166.5 92.5q-105 0 -171.5 -101.5t-68.5 -236.5 zM414 1198l157 307h199l-215 -307h-141z" />
<glyph unicode="&#xea;" horiz-adv-x="987" d="M98 530q0 251 115.5 398t296.5 147q135 0 224 -69t129 -188.5t40 -287.5l-10 -53h-625q4 -162 79 -256t190 -94q143 0 280 94l60 -129q-148 -104 -338 -104q-201 0 -321 144.5t-120 397.5zM256 1198l170 307h170l170 -307h-121l-133 193l-135 -193h-121zM272 602h465 q0 153 -58.5 245.5t-166.5 92.5q-105 0 -171.5 -101.5t-68.5 -236.5z" />
<glyph unicode="&#xeb;" horiz-adv-x="987" d="M98 530q0 251 115.5 398t296.5 147q135 0 224 -69t129 -188.5t40 -287.5l-10 -53h-625q4 -162 79 -256t190 -94q143 0 280 94l60 -129q-148 -104 -338 -104q-201 0 -321 144.5t-120 397.5zM238 1354q0 47 30.5 81.5t71.5 34.5t71.5 -33.5t30.5 -82.5q0 -48 -30 -83.5 t-72 -35.5t-72 35.5t-30 83.5zM272 602h465q0 153 -58.5 245.5t-166.5 92.5q-105 0 -171.5 -101.5t-68.5 -236.5zM575 1354q0 47 30.5 81.5t70.5 34.5q42 0 73 -33.5t31 -82.5q0 -48 -30 -83.5t-72 -35.5q-41 0 -72 36t-31 83z" />
<glyph unicode="&#xec;" horiz-adv-x="464" d="M35 1505h196l158 -307h-141zM154 0v1063h168v-1063h-168z" />
<glyph unicode="&#xed;" horiz-adv-x="464" d="M80 1198l158 307h198l-215 -307h-141zM154 0v1063h168v-1063h-168z" />
<glyph unicode="&#xee;" horiz-adv-x="464" d="M-25 1198l170 307h170l170 -307h-120l-134 193l-135 -193h-121zM150 0v1063h167v-1063h-167z" />
<glyph unicode="&#xef;" horiz-adv-x="458" d="M-49 1354q0 47 30.5 81.5t71.5 34.5t72 -34t31 -82t-30.5 -83.5t-72.5 -35.5t-72 35.5t-30 83.5zM145 0v1063h168v-1063h-168zM289 1354q0 47 30 81.5t70 34.5q42 0 73.5 -33.5t31.5 -82.5q0 -48 -30.5 -83.5t-72.5 -35.5q-41 0 -71.5 36t-30.5 83z" />
<glyph unicode="&#xf0;" horiz-adv-x="1069" d="M98 530q0 245 113 386t297 141q148 0 233 -82l7 4q-60 156 -179 297l-184 -119l-72 88l172 111q-85 92 -159 151l77 123q93 -64 224 -198l182 116l80 -80l-180 -118q256 -346 256 -748q0 -311 -116.5 -462.5t-328.5 -151.5q-189 0 -305.5 145t-116.5 397zM266 524 q0 -180 72.5 -285.5t189.5 -105.5q128 0 200.5 110.5t72.5 297.5q0 149 -43 280q-92 92 -215 92t-200 -105.5t-77 -283.5z" />
<glyph unicode="&#xf1;" horiz-adv-x="1046" d="M131 0v1063h143l17 -154l6 -2q65 88 143 128t150 40q45 0 86.5 -11.5t85.5 -43.5t75.5 -82.5t51.5 -136t20 -195.5v-606h-168v612q0 88 -18 152.5t-48 97.5t-61.5 47.5t-66.5 14.5q-61 0 -129 -46.5t-119 -148.5v-729h-168zM283 1294l49 113q52 -49 96 -49q26 0 58.5 20 t74.5 40t90 20q76 0 156 -76l-45 -119q-58 51 -113 51q-35 0 -107 -38.5t-116 -38.5q-74 0 -143 77z" />
<glyph unicode="&#xf2;" horiz-adv-x="1062" d="M98 530q0 254 118.5 399.5t313.5 145.5t315 -145.5t120 -399.5q0 -251 -120 -396.5t-315 -145.5t-313.5 145t-118.5 397zM266 530q0 -181 73 -289t191 -108q120 0 193.5 108t73.5 289q0 183 -73.5 291.5t-193.5 108.5q-118 0 -191 -108.5t-73 -291.5zM346 1505h197 l157 -307h-141z" />
<glyph unicode="&#xf3;" horiz-adv-x="1062" d="M98 530q0 254 118.5 399.5t313.5 145.5t315 -145.5t120 -399.5q0 -251 -120 -396.5t-315 -145.5t-313.5 145t-118.5 397zM266 530q0 -181 73 -289t191 -108q120 0 193.5 108t73.5 289q0 183 -73.5 291.5t-193.5 108.5q-118 0 -191 -108.5t-73 -291.5zM418 1198l157 307 h199l-215 -307h-141z" />
<glyph unicode="&#xf4;" horiz-adv-x="1062" d="M98 530q0 254 118.5 399.5t313.5 145.5t315 -145.5t120 -399.5q0 -251 -120 -396.5t-315 -145.5t-313.5 145t-118.5 397zM266 530q0 -181 73 -289t191 -108q120 0 193.5 108t73.5 289q0 183 -73.5 291.5t-193.5 108.5q-118 0 -191 -108.5t-73 -291.5zM276 1198l170 307 h170l170 -307h-120l-134 193l-135 -193h-121z" />
<glyph unicode="&#xf5;" horiz-adv-x="1062" d="M98 530q0 254 118.5 399.5t313.5 145.5t315 -145.5t120 -399.5q0 -251 -120 -396.5t-315 -145.5t-313.5 145t-118.5 397zM266 530q0 -181 73 -289t191 -108q120 0 193.5 108t73.5 289q0 183 -73.5 291.5t-193.5 108.5q-118 0 -191 -108.5t-73 -291.5zM274 1294l50 113 q52 -49 96 -49q26 0 58.5 20t74.5 40t90 20q76 0 156 -76l-45 -119q-58 51 -113 51q-35 0 -107 -38.5t-116 -38.5q-75 0 -144 77z" />
<glyph unicode="&#xf6;" horiz-adv-x="1062" d="M98 530q0 254 118.5 399.5t313.5 145.5t315 -145.5t120 -399.5q0 -251 -120 -396.5t-315 -145.5t-313.5 145t-118.5 397zM254 1354q0 47 30.5 81.5t71.5 34.5t72 -34t31 -82t-30.5 -83.5t-72.5 -35.5t-72 35.5t-30 83.5zM266 530q0 -181 73 -289t191 -108 q120 0 193.5 108t73.5 289q0 183 -73.5 291.5t-193.5 108.5q-118 0 -191 -108.5t-73 -291.5zM592 1354q0 47 30 81.5t70 34.5q42 0 73.5 -33.5t31.5 -82.5q0 -48 -30.5 -83.5t-72.5 -35.5q-41 0 -71.5 36t-30.5 83z" />
<glyph unicode="&#xf7;" horiz-adv-x="1071" d="M104 618v148h863v-148h-863zM412 264q0 61 35.5 103.5t87.5 42.5t88 -43t36 -103q0 -62 -36 -104.5t-88 -42.5t-87.5 42.5t-35.5 104.5zM412 1120q0 61 35.5 104.5t87.5 43.5t88 -43.5t36 -104.5q0 -60 -36 -101.5t-88 -41.5t-87.5 41.5t-35.5 101.5z" />
<glyph unicode="&#xf8;" horiz-adv-x="1054" d="M94 530q0 254 119.5 399.5t314.5 145.5q155 0 269 -100l75 96l68 -80l-70 -96q91 -144 91 -365q0 -251 -119.5 -396.5t-313.5 -145.5q-161 0 -272 102l-76 -98l-69 80l73 96q-90 137 -90 362zM256 530q0 -136 53 -231l377 557q-74 74 -158 74q-120 0 -196 -109t-76 -291z M367 209q73 -76 161 -76q119 0 196 108.5t77 288.5q0 143 -56 234z" />
<glyph unicode="&#xf9;" horiz-adv-x="1046" d="M135 459v604h166v-610q0 -89 18.5 -154t49 -98t62.5 -47.5t67 -14.5q58 0 126.5 47t120.5 148v729h166v-1063h-143l-16 156l-9 2q-64 -88 -141 -129t-147 -41q-46 0 -88 11.5t-85.5 44t-75 83.5t-51.5 136.5t-20 195.5zM293 1505h196l158 -307h-141z" />
<glyph unicode="&#xfa;" horiz-adv-x="1046" d="M135 459v604h166v-610q0 -89 18.5 -154t49 -98t62.5 -47.5t67 -14.5q58 0 126.5 47t120.5 148v729h166v-1063h-143l-16 156l-9 2q-64 -88 -141 -129t-147 -41q-46 0 -88 11.5t-85.5 44t-75 83.5t-51.5 136.5t-20 195.5zM422 1198l158 307h198l-215 -307h-141z" />
<glyph unicode="&#xfb;" horiz-adv-x="1046" d="M135 459v604h166v-610q0 -89 18.5 -154t49 -98t62.5 -47.5t67 -14.5q58 0 126.5 47t120.5 148v729h166v-1063h-143l-16 156l-9 2q-64 -88 -141 -129t-147 -41q-46 0 -88 11.5t-85.5 44t-75 83.5t-51.5 136.5t-20 195.5zM279 1198l170 307h169l170 -307h-120l-133 193 l-136 -193h-120z" />
<glyph unicode="&#xfc;" horiz-adv-x="1046" d="M135 459v604h166v-610q0 -89 18.5 -154t49 -98t62.5 -47.5t67 -14.5q58 0 126.5 47t120.5 148v729h166v-1063h-143l-16 156l-9 2q-64 -88 -141 -129t-147 -41q-46 0 -88 11.5t-85.5 44t-75 83.5t-51.5 136.5t-20 195.5zM268 1354q0 47 31 81.5t72 34.5t71.5 -33.5 t30.5 -82.5q0 -48 -30 -83.5t-72 -35.5t-72.5 35.5t-30.5 83.5zM606 1354q0 47 30.5 81.5t70.5 34.5q42 0 73 -33.5t31 -82.5q0 -48 -30 -83.5t-72 -35.5q-41 0 -72 36t-31 83z" />
<glyph unicode="&#xfd;" horiz-adv-x="892" d="M8 1063l182 12l252 -796h7l253 796l181 -12l-541 -1501l-166 12l184 508zM383 1198l158 307h198l-215 -307h-141z" />
<glyph unicode="&#xfe;" horiz-adv-x="980" d="M131 -426v2056h168v-667l6 -5q102 117 217 117q169 0 264 -144.5t95 -400.5t-95 -399t-264 -143q-112 0 -217 114l-6 -2v-526h-168zM299 279q53 -69 101.5 -104.5t107.5 -35.5q98 0 152.5 103.5t54.5 287.5q0 183 -55 288.5t-152 105.5q-59 0 -108 -36.5t-101 -107.5 v-501z" />
<glyph unicode="&#xff;" horiz-adv-x="878" d="M2 1063l182 12l252 -796h6l254 796l181 -12l-541 -1501l-166 12l184 508zM180 1354q0 47 31 81.5t72 34.5t71.5 -33.5t30.5 -82.5q0 -48 -30 -83.5t-72 -35.5t-72.5 35.5t-30.5 83.5zM518 1354q0 47 30 81.5t70 34.5q42 0 73.5 -33.5t31.5 -82.5q0 -48 -30 -83.5 t-72 -35.5q-41 0 -72 36t-31 83z" />
<glyph unicode="&#x152;" horiz-adv-x="1802" d="M98 766q0 166 39 306t115 246t196 166t273 60q76 0 153 -12h826v-160h-651v-502h581v-151h-581v-559h651v-160h-826q-77 -12 -153 -12q-153 0 -273 60t-196 166t-115 246t-39 306zM274 766q0 -129 27 -239t80.5 -195t140.5 -133.5t199 -48.5q69 0 151 18v1194 q-79 20 -151 20q-112 0 -199 -48.5t-140.5 -133.5t-80.5 -195t-27 -239z" />
<glyph unicode="&#x153;" horiz-adv-x="1685" d="M98 530q0 254 118.5 399.5t313.5 145.5q115 0 206 -61.5t145 -175.5q51 113 136.5 175t190.5 62q135 0 223.5 -69t128 -188.5t39.5 -287.5l-8 -53h-624q4 -163 78.5 -256.5t189.5 -93.5q141 0 281 94l59 -129q-151 -106 -338 -106q-118 0 -210 61.5t-146 177.5 q-54 -116 -144 -177.5t-207 -61.5q-195 0 -313.5 146t-118.5 398zM266 530q0 -182 73 -290.5t191 -108.5q119 0 193 108.5t74 290.5q0 183 -73.5 291.5t-193.5 108.5q-118 0 -191 -108.5t-73 -291.5zM969 610h467q0 145 -63 237.5t-167 92.5q-100 0 -166 -98t-71 -232z" />
<glyph unicode="&#x178;" horiz-adv-x="1083" d="M12 1532l203 12l324 -794h6l321 794l205 -12l-442 -940v-592h-176v588zM274 1788q0 47 31 82t72 35t71.5 -34t30.5 -83q0 -48 -30 -83.5t-72 -35.5t-72.5 35.5t-30.5 83.5zM612 1788q0 47 30.5 82t70.5 35q42 0 73 -34t31 -83q0 -48 -30 -83.5t-72 -35.5q-41 0 -72 36 t-31 83z" />
<glyph unicode="&#x2c6;" horiz-adv-x="542" d="M16 1198l170 307h170l170 -307h-120l-134 193l-135 -193h-121z" />
<glyph unicode="&#x2dc;" horiz-adv-x="557" d="M16 1294l50 113q52 -49 96 -49q26 0 58.5 20t74.5 40t90 20q76 0 156 -76l-45 -119q-58 51 -113 51q-34 0 -106.5 -38.5t-116.5 -38.5q-75 0 -144 77z" />
<glyph unicode="&#x2000;" horiz-adv-x="994" />
<glyph unicode="&#x2001;" horiz-adv-x="1989" />
<glyph unicode="&#x2002;" horiz-adv-x="994" />
<glyph unicode="&#x2003;" horiz-adv-x="1989" />
<glyph unicode="&#x2004;" horiz-adv-x="663" />
<glyph unicode="&#x2005;" horiz-adv-x="497" />
<glyph unicode="&#x2006;" horiz-adv-x="331" />
<glyph unicode="&#x2007;" horiz-adv-x="331" />
<glyph unicode="&#x2008;" horiz-adv-x="248" />
<glyph unicode="&#x2009;" horiz-adv-x="397" />
<glyph unicode="&#x200a;" horiz-adv-x="110" />
<glyph unicode="&#x2010;" horiz-adv-x="571" d="M66 524v148h440v-148h-440z" />
<glyph unicode="&#x2011;" horiz-adv-x="571" d="M66 524v148h440v-148h-440z" />
<glyph unicode="&#x2012;" horiz-adv-x="571" d="M66 524v148h440v-148h-440z" />
<glyph unicode="&#x2013;" horiz-adv-x="819" d="M0 524v148h819v-148h-819z" />
<glyph unicode="&#x2014;" horiz-adv-x="1255" d="M0 524v148h1255v-148h-1255z" />
<glyph unicode="&#x2018;" horiz-adv-x="405" d="M90 1100q0 83 47 224.5t92 219.5l90 -35l-98 -274q46 0 76.5 -41t30.5 -94q0 -57 -35 -98t-84 -41t-84 41t-35 98z" />
<glyph unicode="&#x2019;" horiz-adv-x="403" d="M78 1405q0 58 34.5 98.5t84.5 40.5q47 0 81.5 -41t34.5 -98q0 -83 -47 -226t-92 -218l-88 36l98 273q-46 0 -76 41t-30 94z" />
<glyph unicode="&#x201a;" horiz-adv-x="462" d="M100 125q0 57 35 98t82 41q50 0 84.5 -40.5t34.5 -98.5q0 -82 -47 -224t-92 -220l-88 36l98 273q-45 0 -76 41.5t-31 93.5z" />
<glyph unicode="&#x201c;" horiz-adv-x="759" d="M90 1100q0 83 47 224.5t92 219.5l90 -35l-98 -274q46 0 76.5 -41t30.5 -94q0 -57 -35 -98t-84 -41t-84 41t-35 98zM446 1100q0 83 47.5 224.5t92.5 219.5l88 -35l-99 -274q46 0 76.5 -41t30.5 -94q0 -57 -34 -98t-83 -41q-50 0 -84.5 40.5t-34.5 98.5z" />
<glyph unicode="&#x201d;" horiz-adv-x="759" d="M78 1405q0 58 34.5 98.5t84.5 40.5q47 0 81.5 -41t34.5 -98q0 -83 -47 -226t-92 -218l-88 36l98 273q-46 0 -76 41t-30 94zM432 1405q0 57 35 98t84 41q48 0 83.5 -41t35.5 -98q0 -81 -47.5 -223.5t-92.5 -220.5l-88 36l97 273q-46 0 -76.5 41t-30.5 94z" />
<glyph unicode="&#x201e;" horiz-adv-x="819" d="M100 125q0 57 35 98t82 41q50 0 84.5 -40.5t34.5 -98.5q0 -82 -47 -224t-92 -220l-88 36l98 273q-45 0 -76 41.5t-31 93.5zM455 125q0 57 34.5 98t83.5 41t84 -41t35 -98q0 -81 -47 -222.5t-92 -221.5l-88 36l98 273q-46 0 -77 41.5t-31 93.5z" />
<glyph unicode="&#x2022;" horiz-adv-x="614" d="M109 766q0 100 57.5 171t140.5 71q82 0 140.5 -71t58.5 -171q0 -99 -58.5 -168.5t-140.5 -69.5q-83 0 -140.5 69t-57.5 169z" />
<glyph unicode="&#x2026;" horiz-adv-x="1486" d="M127 125q0 58 34.5 98.5t84.5 40.5q49 0 82.5 -40.5t33.5 -98.5q0 -57 -33.5 -97t-82.5 -40q-51 0 -85 40t-34 97zM627 125q0 58 33.5 98.5t82.5 40.5t84 -41t35 -98t-34.5 -97t-84.5 -40q-49 0 -82.5 40t-33.5 97zM1122 125q0 57 35 98t84 41t84 -41t35 -98t-34.5 -97 t-84.5 -40t-84.5 40t-34.5 97z" />
<glyph unicode="&#x202f;" horiz-adv-x="397" />
<glyph unicode="&#x2039;" horiz-adv-x="591" d="M106 735v17l267 460l94 -77l-211 -390l211 -395l-94 -78z" />
<glyph unicode="&#x203a;" horiz-adv-x="591" d="M123 350l213 395l-213 390l96 77l264 -460v-17l-264 -463z" />
<glyph unicode="&#x205f;" horiz-adv-x="497" />
<glyph unicode="&#x20ac;" d="M78 532l31 123h67q-4 70 -4 109q0 63 2 96h-96l31 123h77q30 280 138.5 420.5t283.5 140.5t322 -110l-70 -146q-121 105 -252 105q-100 0 -164.5 -103t-87.5 -307h424l-28 -123h-406q-4 -66 -4 -96q0 -39 4 -109h373l-29 -123h-332q28 -192 95 -292.5t168 -100.5 q126 0 253 121l72 -139q-147 -133 -325 -133t-287.5 138.5t-143.5 405.5h-112z" />
<glyph unicode="&#x2122;" horiz-adv-x="1271" d="M82 1436v96h493v-96h-200v-584h-94v584h-199zM678 852v680h74l202 -391l203 391h74v-680h-96v446l-9 2l-168 -325h-8l-168 325l-8 -2v-446h-96z" />
<glyph unicode="&#x25fc;" horiz-adv-x="1075" d="M0 0v1075h1075v-1075h-1075z" />
</font>
</defs>
</svg>
