<?xml version="1.0" encoding="UTF-8" standalone="no"?>
<svg
   xmlns:dc="http://purl.org/dc/elements/1.1/"
   xmlns:cc="http://creativecommons.org/ns#"
   xmlns:rdf="http://www.w3.org/1999/02/22-rdf-syntax-ns#"
   xmlns:svg="http://www.w3.org/2000/svg"
   xmlns="http://www.w3.org/2000/svg"
   xmlns:sodipodi="http://sodipodi.sourceforge.net/DTD/sodipodi-0.dtd"
   xmlns:inkscape="http://www.inkscape.org/namespaces/inkscape"
   height="42"
   version="1.0"
   viewBox="0 0 42 42"
   width="42"
   xml:space="preserve"
   id="svg2"
   inkscape:version="0.48.4 r9939"
   sodipodi:docname="settings.svg"><metadata
     id="metadata25"><rdf:RDF><cc:Work
         rdf:about=""><dc:format>image/svg+xml</dc:format><dc:type
           rdf:resource="http://purl.org/dc/dcmitype/StillImage" /></cc:Work></rdf:RDF></metadata><defs
     id="defs23" /><sodipodi:namedview
     pagecolor="#ffffff"
     bordercolor="#666666"
     borderopacity="1"
     objecttolerance="10"
     gridtolerance="10"
     guidetolerance="10"
     inkscape:pageopacity="0"
     inkscape:pageshadow="2"
     inkscape:window-width="2489"
     inkscape:window-height="1413"
     id="namedview21"
     showgrid="false"
     inkscape:zoom="2.1454545"
     inkscape:cx="55"
     inkscape:cy="55"
     inkscape:window-x="71"
     inkscape:window-y="27"
     inkscape:window-maximized="1"
     inkscape:current-layer="svg2" /><g
     id="R-Multicolor"
     transform="matrix(0.38181818,0,0,0.38181818,0,4e-7)"><circle
       cx="55"
       cy="55"
       r="55"
       style="fill:#25b7d3"
       id="circle5"
       sodipodi:cx="55"
       sodipodi:cy="55"
       sodipodi:rx="55"
       sodipodi:ry="55"
       d="M 110,55 C 110,85.375661 85.375661,110 55,110 24.624339,110 0,85.375661 0,55 0,24.624339 24.624339,0 55,0 c 30.375661,0 55,24.624339 55,55 z" /><g
       id="g7"><path
         d="M 83.485,66.502 C 80.346,63.363 75.903,62.338 71.902,63.404 L 50.167,41.67 C 51.914,36.741 50.831,31.033 46.887,27.088 42.94,23.141 37.228,22.059 32.296,23.811 l 10.348,10.348 v 5.657 l -2.828,2.828 H 34.159 L 23.811,32.296 c -1.751,4.932 -0.669,10.644 3.277,14.591 3.949,3.949 9.666,5.03 14.6,3.274 l 21.728,21.728 c -1.066,4.002 -0.041,8.445 3.098,11.584 4.686,4.686 12.284,4.686 16.971,0 4.687,-4.686 4.687,-12.284 0,-16.971 z m -6.619,15.451 -6.965,-1.866 -1.866,-6.965 5.099,-5.099 6.965,1.866 1.866,6.965 -5.099,5.099 z"
         style="fill:#e2e4e5"
         id="path9"
         inkscape:connector-curvature="0" /><path
         d="M 71.902,63.404 50.167,41.67 C 51.914,36.741 50.831,31.033 46.887,27.088 42.94,23.141 37.228,22.059 32.296,23.811 l 10.348,10.348 v 5.657 l -1.355,1.355 29.348,29.348 2.497,-2.497 6.965,1.866 1.866,6.965 -2.497,2.497 4.067,4.067 c 4.633,-4.69 4.619,-12.247 -0.05,-16.916 -3.139,-3.138 -7.582,-4.163 -11.583,-3.097 z"
         style="fill:#ffffff"
         id="path11"
         inkscape:connector-curvature="0" /><path
         d="m 53.788,68.08 c 0.757,-0.757 1.055,-1.864 0.778,-2.899 -0.268,-1.001 -0.009,-2.114 0.777,-2.899 l 2.828,-2.828 c 0.391,-0.391 0.391,-1.024 0,-1.414 l -5.657,-5.657 c -0.391,-0.391 -1.024,-0.391 -1.414,0 l -2.828,2.828 c -0.785,0.785 -1.898,1.044 -2.899,0.777 -1.036,-0.277 -2.141,0.02 -2.899,0.778 L 24.23,75.01 c -3.536,3.536 7.778,14.849 11.314,11.314 L 53.788,68.08 z"
         style="fill:#df2c2c"
         id="path13"
         inkscape:connector-curvature="0" /><polygon
         points="83.187,24.539 71.166,30.903 70.459,35.853 53.222,53.09 57.464,57.333 74.702,40.095 79.581,39.459 86.095,27.447 "
         style="fill:#e2e4e5"
         id="polygon15" /><polygon
         points="70.459,35.853 53.222,53.09 55.566,55.434 84.824,26.176 83.187,24.539 71.166,30.903 "
         style="fill:#ffffff"
         id="polygon17" /><path
         d="m 52.515,52.383 c -0.391,-0.391 -1.023,-0.391 -1.414,0 l -2.829,2.829 c -0.785,0.786 -1.898,1.044 -2.899,0.776 -1.036,-0.277 -2.141,0.021 -2.899,0.779 L 24.23,75.01 c -1.814,1.814 0.284,5.674 3.232,8.527 L 55.566,55.434 52.515,52.383 z"
         style="fill:#fa5655"
         id="path19"
         inkscape:connector-curvature="0" /></g></g></svg>