<?xml version="1.0" encoding="UTF-8" standalone="no"?>
<svg
   xmlns:dc="http://purl.org/dc/elements/1.1/"
   xmlns:cc="http://creativecommons.org/ns#"
   xmlns:rdf="http://www.w3.org/1999/02/22-rdf-syntax-ns#"
   xmlns:svg="http://www.w3.org/2000/svg"
   xmlns="http://www.w3.org/2000/svg"
   xmlns:xlink="http://www.w3.org/1999/xlink"
   xmlns:sodipodi="http://sodipodi.sourceforge.net/DTD/sodipodi-0.dtd"
   xmlns:inkscape="http://www.inkscape.org/namespaces/inkscape"
   enable-background="new -27 24 100 100"
   height="42"
   id="male3"
   version="1.1"
   viewBox="-27 24 42 42"
   width="42"
   xml:space="preserve"
   inkscape:version="0.48.4 r9939"
   sodipodi:docname="users.svg"><metadata
     id="metadata63"><rdf:RDF><cc:Work
         rdf:about=""><dc:format>image/svg+xml</dc:format><dc:type
           rdf:resource="http://purl.org/dc/dcmitype/StillImage" /></cc:Work></rdf:RDF></metadata><defs
     id="defs61" /><sodipodi:namedview
     pagecolor="#ffffff"
     bordercolor="#666666"
     borderopacity="1"
     objecttolerance="10"
     gridtolerance="10"
     guidetolerance="10"
     inkscape:pageopacity="0"
     inkscape:pageshadow="2"
     inkscape:window-width="2489"
     inkscape:window-height="1413"
     id="namedview59"
     showgrid="false"
     inkscape:zoom="2.36"
     inkscape:cx="50"
     inkscape:cy="50"
     inkscape:window-x="71"
     inkscape:window-y="27"
     inkscape:window-maximized="1"
     inkscape:current-layer="male3" /><g
     id="g3"
     transform="matrix(0.42,0,0,0.42,-15.66,13.92)"><g
       id="g5"><circle
         cx="23"
         cy="74"
         r="50"
         id="circle7"
         sodipodi:cx="23"
         sodipodi:cy="74"
         sodipodi:rx="50"
         sodipodi:ry="50"
         style="fill:#f5eee5"
         d="m 73,74 c 0,27.61424 -22.385763,50 -50,50 -27.6142375,0 -50,-22.38576 -50,-50 0,-27.614237 22.3857625,-50 50,-50 27.614237,0 50,22.385763 50,50 z" /><g
         id="g9"><defs
           id="defs11"><circle
             cx="23"
             cy="74"
             id="SVGID_1_"
             r="50"
             sodipodi:cx="23"
             sodipodi:cy="74"
             sodipodi:rx="50"
             sodipodi:ry="50" /></defs><clipPath
           id="SVGID_2_"><use
             overflow="visible"
             xlink:href="#SVGID_1_"
             id="use15"
             style="overflow:visible"
             x="0"
             y="0"
             width="100"
             height="100" /></clipPath><path
           clip-path="url(#SVGID_2_)"
           d="m 38,99.9 27.9,7.7 c 3.2,1.1 5.7,3.5 7.1,6.6 V 124 H -27 v -9.8 c 1.3,-3.1 3.9,-5.5 7.1,-6.6 L 8,99.9 V 85 h 30 v 14.9 z"
           id="path17"
           inkscape:connector-curvature="0"
           style="fill:#e6c19c" /><g
           clip-path="url(#SVGID_2_)"
           id="g19"><defs
             id="defs21"><path
               d="m 38,99.9 27.9,7.7 c 3.2,1.1 5.7,3.5 7.1,6.6 V 124 H -27 v -9.8 c 1.3,-3.1 3.9,-5.5 7.1,-6.6 L 8,99.9 V 85 h 30 v 14.9 z"
               id="SVGID_3_"
               inkscape:connector-curvature="0" /></defs><clipPath
             id="SVGID_4_"><use
               overflow="visible"
               xlink:href="#SVGID_3_"
               id="use25"
               style="overflow:visible"
               x="0"
               y="0"
               width="100"
               height="100" /></clipPath><path
             clip-path="url(#SVGID_4_)"
             d="M -27,82 H 73 v 42 H -27 V 82 z m 50,30 C 34,112 43,105.7 43,98 43,90.3 34,84 23,84 12,84 3,90.3 3,98 c 0,7.7 9,14 20,14 z"
             id="path27"
             inkscape:connector-curvature="0"
             style="fill:#e6a422" /><path
             clip-path="url(#SVGID_4_)"
             d="m 23,102 c -1.7,0 -3.9,-0.4 -5.4,-1.1 C 15.9,100 9.6,94.8 7.4,92.6 4.6,89.6 3.2,85.8 2.8,79.3 2.4,72.8 0.7,49.6 0.7,44.3 0.7,36.8 6.4,25.1 22.8,25.1 l 0.1,0 0,0 0,0 0.1,0 c 16.5,0.1 22.1,11.7 22.1,19.2 0,5.3 -1.7,28.5 -2.1,35 -0.4,6.5 -1.8,10.2 -4.6,13.3 -2.1,2.3 -8.4,7.4 -10.2,8.3 -1.3,0.7 -3.5,1.1 -5.2,1.1 l 0,0 z"
             id="path29"
             inkscape:connector-curvature="0"
             style="fill:#d4b08c" /><path
             clip-path="url(#SVGID_4_)"
             d="M 23,82 C 10.3,82 0,89.4 0,98.5 0,107.6 10.3,115 23,115 35.7,115 46,107.6 46,98.5 46,89.4 35.7,82 23,82 z m 0,29 C 12.5,111 4,105 4,97.5 4,90 12.5,84 23,84 33.5,84 42,90 42,97.5 42,105 33.5,111 23,111 z"
             id="path31"
             inkscape:connector-curvature="0"
             style="fill:#d98c21" /></g></g><path
         d="M 23,98 C 21.5,98 19.5,97.7 18.2,97.1 16.6,96.4 11,92.5 9.1,90.8 6.6,88.5 5.3,85.7 4.9,80.8 4.5,75.9 3,58.5 3,54.5 3,48.8 8.1,40 23,40 l 0,0 0,0 0,0 0,0 c 14.9,0 20,8.8 20,14.5 0,4 -1.5,21.5 -1.9,26.4 -0.4,4.9 -1.6,7.7 -4.2,10 -1.9,1.7 -7.6,5.6 -9.1,6.3 C 26.5,97.7 24.5,98 23,98 l 0,0 z"
         id="path33"
         inkscape:connector-curvature="0"
         style="fill:#f2cea5" /><path
         d="m 30,85.5 c -1.9,2 -5.2,3 -8.1,2.4 -2.7,-0.6 -4.7,-2 -5.7,-4.3 L 30,85.5 z"
         id="path35"
         inkscape:connector-curvature="0"
         style="fill:#a3705f" /><path
         d="m 30,85.5 c -1.9,2 -5.2,3 -8.1,2.4 -2.7,-0.6 -4.7,-2 -5.7,-4.3 L 30,85.5 z"
         id="path37"
         inkscape:connector-curvature="0"
         style="fill:none;stroke:#a3705f;stroke-linecap:round;stroke-linejoin:round" /><g
         id="g39"><defs
           id="defs41"><rect
             height="5"
             id="SVGID_5_"
             width="31"
             x="7"
             y="65" /></defs><clipPath
           id="SVGID_6_"><use
             overflow="visible"
             xlink:href="#SVGID_5_"
             id="use45"
             style="overflow:visible"
             x="0"
             y="0"
             width="100"
             height="100" /></clipPath><circle
           clip-path="url(#SVGID_6_)"
           cx="32"
           cy="69"
           r="2"
           id="circle47"
           sodipodi:cx="32"
           sodipodi:cy="69"
           sodipodi:rx="2"
           sodipodi:ry="2"
           style="fill:#291f21"
           d="m 34,69 c 0,1.104569 -0.895431,2 -2,2 -1.104569,0 -2,-0.895431 -2,-2 0,-1.104569 0.895431,-2 2,-2 1.104569,0 2,0.895431 2,2 z" /><circle
           clip-path="url(#SVGID_6_)"
           cx="14"
           cy="69"
           r="2"
           id="circle49"
           sodipodi:cx="14"
           sodipodi:cy="69"
           sodipodi:rx="2"
           sodipodi:ry="2"
           style="fill:#291f21"
           d="m 16,69 c 0,1.104569 -0.895431,2 -2,2 -1.104569,0 -2,-0.895431 -2,-2 0,-1.104569 0.895431,-2 2,-2 1.104569,0 2,0.895431 2,2 z" /></g><path
         d="m 8,66 c 0,0 1.1,-3 6.1,-3 3.4,0 5.4,1.5 6.4,3"
         id="path51"
         inkscape:connector-curvature="0"
         style="fill:none;stroke:#cc9872;stroke-width:2" /><path
         d="m 38.1,66 c 0,0 -1.1,-3 -6.1,-3 -4.8,0 -7,3 -7,5 0,1.9 0,9 0,9"
         id="path53"
         inkscape:connector-curvature="0"
         style="fill:none;stroke:#bb8660;stroke-width:2" /><path
         d="m 41.8,72.2 c 0,0 0.8,-6.3 3.7,-7.2 0.4,-1.8 1.5,-7 1.5,-9.9 0,-2.9 -0.3,-5.7 -1.9,-8.1 -1.8,-2.6 -5.6,-4.1 -7.6,-4.1 -2.3,1.4 -7.7,4.6 -9.4,6.5 -0.9,1 0.4,1.8 0.4,1.8 0,0 1.2,-0.5 1.7,-0.6 2.5,-0.7 8,-1.2 9.7,1.3 2.1,3 2.1,11.8 2.1,13.1 0,1.2 -0.2,7.2 -0.2,7.2 z"
         id="path55"
         inkscape:connector-curvature="0"
         style="fill:#452228" /><path
         d="m 0.5,65 c 2.9,1 3.7,7.2 3.7,7.2 0,0 -0.2,-6 -0.2,-7.2 0,-1.6 0.2,-9.1 3.4,-12.7 3.6,-4 8.4,-5.3 11.1,-3.5 1.4,0.9 6.1,5.5 11.1,1.7 3,-2.3 8.5,-7.5 8.5,-7.5 0,0 -2.9,-8.9 -16.1,-7.9 -5.6,0.5 -11.8,-0.9 -11.8,-0.9 0,0 -0.1,2.5 0.9,3.8 -8.3,2.4 -11,8.4 -11.8,13 -0.2,0.9 -0.3,1.8 -0.3,2.7 0,0.5 0,1 0,1.4 0,2.9 1.1,8 1.5,9.9 z"
         id="path57"
         inkscape:connector-curvature="0"
         style="fill:#6b363e" /></g></g></svg>